v -0.003040879965 0.001369851758 0.0462619774
vn -0.1690512896 -0.9734279513 0.154465884
v -0.01506944094 0.01810952462 0.07111489773
vn -0.9688595533 0.07213872671 -0.2368695587
v 0.0083457781 0.02175436355 0.04978053272
vn 0.5436325669 0.8346303701 -0.08863263577
v -0.005255947355 0.006713838317 0.02333019674
vn -0.5617406964 0.6516208649 -0.5097427368
v 0.004593393765 0.009420230053 0.02632782049
vn 0.4467605948 0.5772482753 -0.6835125685
v -0.02111957595 -0.03024616838 0.01672568731
vn -0.7463951111 0.2691454589 0.6086502075
v -0.01026399154 -0.03655575961 0.02137577347
vn -0.08751568943 0.3624999821 0.927865684
v 0.01497301552 0.02266659588 0.07426584512
vn 0.9219370484 0.2710689008 -0.2766835093
v -0.0008969314513 0.02617312595 0.06222222745
vn -0.05235406384 0.9189456701 -0.3908936977
v 0.01435271464 -0.02607746609 0.004559819587
vn 0.01977892779 -0.5525684357 -0.83323282
v 0.002898942912 -0.05021240935 0.02194436267
vn -0.2995380461 -0.9407237768 -0.1591090858
v -0.008540049195 0.005498611368 0.07598873973
vn -0.4704749882 -0.8822894692 0.01478325576
v -0.01103866845 0.006945712958 0.03743336722
vn -0.9530604482 -0.2784352601 -0.1189521477
v 0.005168122239 0.01949226297 0.03579225764
vn 0.2843986154 0.8215859532 -0.4940788448
v -0.01077563595 -0.01543728169 0.0001816927106
vn -0.1100819558 -0.3571372032 -0.927542448
v 0.003419175977 0.002527736593 0.05977765843
vn 0.06460721791 -0.9950551987 0.07543936372
v -0.003716678824 0.0319009386 0.08342734724
vn -0.1123457551 0.9532850981 0.2804032266
v 0.01319260895 0.014974677 0.06157396361
vn 0.9936901927 0.03829739243 -0.1054185703
v 0.003938669339 -0.03391487151 0.01069965959
vn -0.2281247973 -0.5529327393 -0.8013890982
v -0.002141801408 -0.001272309921 0.03743860498
vn -0.1347881109 -0.9394252896 0.3151384592
v -0.001671064878 0.01949185319 0.03479877859
vn -0.08919342607 0.8575247526 -0.5066515803
v 0.006240589544 -0.03137417883 0.008227893151
vn -0.1507032961 -0.5566921234 -0.8169347644
v 0.01024790667 -0.01878170483 0.0188653972
vn 0.373326093 0.1304465085 0.9184831977
v 0.0227893535 -0.02625069767 0.006116184406
vn 0.5783571601 -0.2659098208 -0.7712295055
v -0.003329545027 -0.005966406781 0.02380494028
vn -0.3096944988 -0.7117062211 0.6305264235
v -0.00896932371 0.003751723329 0.02963949181
vn -0.9701841474 -0.1311788857 -0.2038010061
v 0.004741670098 -0.01920022815 0.02006511018
vn 0.02364703082 0.02252912521 0.9994664788
v -0.0004934266908 -0.04744901508 0.02109301463
vn -0.5238549709 -0.7187088728 -0.4572018087
v 0.003712818027 0.0180285126 0.09901159257
vn -0.09311262518 0.4665032029 0.879604876
v -0.000801442482 0.01640829816 0.03066374362
vn -0.007992540486 0.7069397569 -0.707228601
v -0.009341794997 0.003246204229 0.03448006138
vn -0.8969110847 -0.4416980147 -0.02129263617
v 0.001373555162 0.02270918712 0.04605162144
vn 0.03069712035 0.9944956899 -0.1001798511
v 0.01229732111 -0.0242538508 0.01899804175
vn 0.3358196318 0.2165660262 0.9166920781
v 0.01518228929 -0.0172279533 -0.0003533845593
vn 0.2741896808 -0.2528803945 -0.9278316498
v 0.01170666888 -0.03930662945 0.01343341172
vn -0.009168768302 -0.5525482297 -0.8334305286
v 0.009202596731 0.03197438642 0.08118279278
vn 0.3859125972 0.9216268063 0.04093315825
v 0.009270803072 -0.02527266741 0.003948469181
vn -0.03970101476 -0.5621140599 -0.8261063099
v 0.005946320482 -0.005411204416 -0.00243854709
vn 0.04573236033 0.294058919 -0.9546925426
v 0.01756292582 -0.03807487711 0.0126393931
vn 0.01700835116 -0.554669261 -0.8318970799
v -0.009679978713 0.02471239679 0.06562490016
vn -0.5798710585 0.7177604437 -0.3854471743
v 0.01322344877 -0.04883266613 0.0263167806
vn 0.2711288333 -0.5466365814 0.7922610641
v 0.001659868052 0.02225140296 0.04209610447
vn 0.04319955781 0.9763267636 -0.2119431198
v -0.01760127209 0.01755011268 0.08414456248
vn -0.9935861826 -0.1009244993 -0.05099777877
v -0.009727580473 0.005902100354 0.06526078284
vn -0.6257238984 -0.7793107033 0.03382874653
v 0.02311898768 -0.03257363662 0.01860171929
vn 0.6735025048 0.303227067 0.6741273999
v 0.01226674393 0.008596037515 0.04879879951
vn 0.9509764314 -0.3075349629 -0.03265076503
v -0.01230238751 0.01275685057 0.09774374217
vn -0.6676375866 -0.07650067657 0.7405455112
v -0.009914696217 -0.03159656003 0.01055836026
vn 0.007674294524 -0.5606459379 -0.8280200958
v -0.004550063051 0.0280792173 0.0668445304
vn -0.2450938374 0.8587050438 -0.450060755
v 0.02116513066 -0.03002699651 0.007460030727
vn 0.2234807462 -0.5053706169 -0.8334608078
v 0.004728015047 -0.008164328523 0.02134889923
vn 0.3558679521 -0.3402625024 0.8703903556
v 0.01298589725 -0.008814339526 -0.0009042527527
vn 0.4952643216 0.293615967 -0.8176202774
v -0.01247418113 0.008972717449 0.06981475651
vn -0.8205079436 -0.5704081059 -0.03743397444
v 0.02028859779 -0.01794938184 0.00202916842
vn 0.6298629045 -0.03452714533 -0.7759385705
v 0.0006729988963 0.004079003353 0.08391029388
vn -0.05319773406 -0.996522069 0.06413888186
v 0.004084411077 -0.04311347753 0.02580712363
vn -0.1796423793 0.3640250266 0.9139006734
v 0.0005097199464 0.01502472907 0.09995027632
vn -0.08062803745 0.3409096003 0.9366321564
v -0.01543116383 -0.02600610442 0.006715922616
vn 0.001820169273 -0.5497587919 -0.835321486
v -0.01303770859 0.02235784382 0.06859690696
vn -0.8310552835 0.4468801916 -0.3311271966
v -0.003410757985 -0.01243265532 -0.001339057926
vn -0.05200590566 -0.2380857468 -0.9698507786
v -0.003048514482 0.001905403333 0.005424307194
vn -0.1629639715 0.9266673326 -0.3387187421
v -0.01500256639 -0.02835428715 0.01769133098
vn -0.2679180503 0.2757672668 0.9231318235
v -0.0136797661 0.0134791676 0.06287872791
vn -0.9913091063 -0.09285800904 -0.09318636358
v 0.01855165884 -0.0135942651 0.001440013642
vn 0.6846672893 0.2634856999 -0.6795631051
v 0.008717291057 0.004924566019 0.08467724919
vn 0.3875162601 -0.9206969738 0.04634901881
v -0.01617034338 0.0235286653 0.07870777696
vn -0.9110274315 0.3656136394 -0.190671593
v 0.001461271546 0.001314880326 0.04665605724
vn 0.01874134503 -0.9900532365 0.1394392997
v 0.01468520798 0.0261931885 0.07830643654
vn 0.8681454659 0.4624513388 -0.1801725775
v -0.004115014803 -0.002444510348 0.03263860568
vn -0.3711751401 -0.894506216 0.24917382
v 0.009198105894 0.02951968834 0.08905956149
vn 0.2733056247 0.8247903585 0.4949998856
v -0.007153615821 0.001641758601 0.01014154963
vn -0.5308253169 0.8411906362 -0.1030666754
v 0.001853691065 0.01045850385 0.1011603624
vn -0.0964352712 -0.05973546207 0.993545115
v 0.006041206885 0.00153468654 0.004644413479
vn 0.2550246716 0.9120568633 -0.3211147189
v -0.01183826663 -0.02301956899 0.004746795166
vn -0.002409190405 -0.5492020249 -0.8356861472
v -0.0151749067 -0.03934336454 0.01566184126
vn -0.4269444644 -0.8195565343 -0.3821589947
v 0.0033197538 -0.01211242564 0.02069440857
vn 0.07082857937 -0.2019964755 0.9768217802
v 0.006436233874 -0.01507376134 0.02006580122
vn 0.2178822458 -0.05212193355 0.9745822549
v 0.01199177373 0.00735215703 0.08225119859
vn 0.703378737 -0.7104682922 -0.02220814116
v -0.01131102163 -0.003390681231 0.002259413013
vn -0.5868403912 0.6233062744 -0.5168245435
v 0.007473491132 0.001009130152 0.03796007484
vn 0.6448419094 -0.7536391616 0.1273063421
v -0.002975857817 0.02127171122 0.09626069665
vn -0.05553583056 0.5858145356 0.8085401058
v 0.01205696538 0.0261561498 0.09132134914
vn 0.5299540758 0.6548039317 0.538869679
v -0.0123268785 -0.01086938847 0.01544945035
vn -0.6910598874 0.1667485982 0.7033001781
v 0.01700444147 -0.04908275232 0.02387983166
vn 0.5085576177 -0.8427575827 0.1764336377
v 0.007258407772 0.005120021757 0.02557955869
vn 0.8441243172 0.3271339238 -0.4247794151
v 0.01052739099 -0.001291104709 0.00331738661
vn 0.5782955885 0.7434087396 -0.3360322714
v 0.002258701948 0.02453620173 0.05823496729
vn 0.04896985367 0.9547928572 -0.2932106853
v 0.0002701704507 0.004710603505 0.09196855128
vn -0.05813707784 -0.9944811463 0.08733443916
v -0.005516659003 0.002939483617 0.05649123713
vn -0.3335745931 -0.9386008978 0.08807008713
v 0.01107317582 0.01480651647 0.03912231699
vn 0.9277238846 0.2597681582 -0.2680465579
v -0.01001132 -0.01524355356 0.01759952307
vn -0.4738429785 0.03743029386 0.8798134923
v 0.01396733429 -0.04130481184 0.02495234087
vn 0.1463888437 0.3858197033 0.9108861089
v 0.001830619061 -0.02984976582 0.008733241819
vn -0.1938914508 -0.5479890108 -0.8137039542
v 0.01526697166 -0.01242565364 -0.0006356780068
vn 0.4863734841 0.1316015571 -0.8637834787
v 0.01055473275 -0.04774841294 0.0188981723
vn 0.01789750159 -0.5921832323 -0.8056045175
v 0.01008974016 -0.004659588914 -0.0009663883247
vn 0.4560643137 0.4717790782 -0.7546057701
v 0.01621106267 -0.04482379556 0.02583596297
vn 0.3545590043 0.01840147376 0.9348525405
v 0.000323865097 -0.008996550925 0.021747021
vn 0.03062331863 -0.4619182646 0.8863936663
v 0.01241536252 0.009337350726 0.05462702736
vn 0.954580307 -0.2977512181 0.0109838713
v -0.002114308299 0.02261177823 0.04439383745
vn -0.1097339541 0.9855588675 -0.1289658844
v -0.01033223234 0.006918683648 0.08975747228
vn -0.5143436193 -0.8561861515 0.04894837365
v -0.01428997423 0.01334043778 0.06829696149
vn -0.9717420936 -0.2013910413 -0.1231218129
v 0.00649315957 -0.01352175884 -0.002558423439
vn -0.06097976863 -0.2249227017 -0.972466588
v 0.01094487496 0.01252573915 0.09967661649
vn 0.6000989676 -0.1468528807 0.7863304019
v 0.0003059145529 0.002901009517 0.06341955811
vn -0.03622400388 -0.9962546825 0.07851355523
v 0.01085449196 -0.03003192507 0.007169813383
vn -0.01065939572 -0.5569138527 -0.8305018544
v 0.005433483981 0.003129305085 0.0141703682
vn 0.4525322318 0.8901931047 -0.05263810232
v -0.003406634787 -0.02025304548 0.002950924681
vn -0.03530504927 -0.552844584 -0.8325361609
v -0.003545081709 -0.04115245491 0.01708385721
vn -0.03553029895 -0.5568050146 -0.8298829794
v 0.01220688503 -0.02180721611 0.001644824399
vn 0.04456214979 -0.5144930482 -0.8563358784
v 0.009255834855 0.005059202202 0.07403793186
vn 0.5503622293 -0.8349255323 -0.0008632134995
v 0.02184374072 -0.02259083651 0.004057577811
vn 0.6489375234 -0.1634120047 -0.7430858612
v 0.009765701368 0.02401966415 0.09479943663
vn 0.2895770967 0.609492898 0.7380132675
v 0.005203656852 0.0234310627 0.05421608686
vn 0.2274392843 0.955689311 -0.1868939847
v 0.001734854188 0.02156348154 0.09622437507
vn -0.1180766672 0.5796324611 0.8062779307
v 0.01143084001 0.01051695645 0.03874036297
vn 0.9780317545 -0.05926482752 -0.1998537928
v 0.009508416057 -0.01777255163 -0.0009236945771
vn 0.0287898276 -0.4171218574 -0.9083944559
v 0.004102374893 -0.01741475053 -0.0004248846672
vn -0.1950056702 -0.4608413875 -0.8657932878
v -0.0009802299319 -0.03533688188 0.02142468467
vn -0.1098729149 0.2953198552 0.9490596056
v -0.002337357961 0.02168189175 0.03951401636
vn -0.1314467788 0.9382770061 -0.3199343085
v 0.003276257077 0.02294923738 0.04960815981
vn 0.1179418191 0.9872648716 -0.1067604944
v -0.004862089641 0.003240504535 0.06243794039
vn -0.2906360328 -0.9539074898 0.0747743696
v -0.009135363623 0.005731043871 0.07106339931
vn -0.5600669384 -0.8281805515 0.02102333121
v 0.006584088318 0.02143326588 0.09747126698
vn 0.03776285052 0.5599316359 0.8276777864
v -0.007602589671 -0.02937213145 0.01965748332
vn -0.1381812692 0.1740445793 0.9749945998
v 0.006229443941 0.02141119167 0.04010634497
vn 0.3675217628 0.8812378645 -0.2972332835
v 0.003762563923 -0.02708691731 0.0206600111
vn -0.1014018133 0.1487590373 0.9836606979
v -0.01682217978 0.02326782607 0.08437474072
vn -0.907320261 0.414387852 0.07108233124
v 0.002118256642 -0.005024269689 0.02475047298
vn 0.2566184402 -0.7905275822 0.5560693145
v -0.01059937291 0.01144767553 0.0348402299
vn -0.9158073664 0.1727009118 -0.3625896275
v 0.006398486439 0.03194643185 0.08539078385
vn 0.0747051239 0.9343636036 0.3484017551
v -0.00801861845 0.01118925866 0.0301277712
vn -0.7328076959 0.3683129549 -0.5721350312
v -0.01723759435 0.01542483922 0.08843825758
vn -0.9656462073 -0.2307501733 0.1195061952
v 0.004588148091 0.02509152703 0.09423551708
vn -0.07983019203 0.6564242244 0.7501562238
v 0.01046741754 0.01821026206 0.04182783142
vn 0.8300592303 0.5141224861 -0.2160549909
v 0.01132790465 -0.04434161261 0.01672277413
vn -0.001218874822 -0.546189785 -0.8376605511
v 0.005950779654 -0.00123239879 0.03247790039
vn 0.6068047881 -0.7808361053 0.1486032009
v -0.01114691794 0.01900424249 0.05407511443
vn -0.7872658372 0.6093087792 -0.09463217854
v 0.009452573955 0.02155824378 0.05558294803
vn 0.6734080315 0.7216508985 -0.1604418755
v 0.02139840648 -0.01905319467 0.01166806091
vn 0.7350749969 0.4489418864 0.5080510974
v 0.01657428965 -0.03027805686 0.007407296915
vn 0.01933993399 -0.5558876991 -0.8310323954
v -0.01694694906 -0.03135217354 0.0182729587
vn -0.2091536522 0.3626132905 0.9081664681
v -0.01058438141 -0.03547754139 0.01317399554
vn 0.009714913554 -0.5566509366 -0.8306896687
v -0.01638789102 0.01875835471 0.076196298
vn -0.9707536101 0.01578412764 -0.2395585477
v -0.0003655530745 0.01223566476 0.02725491859
vn 0.03382855281 0.651737988 -0.7576894164
v 0.0002700462064 -0.03969562054 0.02318851463
vn -0.162904337 0.370839417 0.9142976999
v 0.004612016492 0.003590662964 0.07672394067
vn 0.1351308525 -0.9903376698 0.03115946427
v -0.01917616464 -0.03406695649 0.01897753961
vn -0.6049795151 -0.1813346446 0.7753176689
v 0.003338694107 -0.0350946635 0.02232710645
vn -0.1869516075 0.3110269904 0.9318322539
v 0.009043553844 -2.792175292e-05 0.01359366346
vn 0.7729086876 0.6134237647 0.162245214
v -0.01912205666 -0.02877902053 0.00849354919
vn -0.03067964688 -0.5448525548 -0.8379704356
v 0.01428184845 0.01960429922 0.07006021589
vn 0.9467286468 0.1733973622 -0.2713636756
v 0.02561262436 -0.03872124851 0.01848677918
vn 0.9742895961 -0.1434646547 0.1737170666
v 0.01915051602 -0.02651810274 0.004971210379
vn 0.153372854 -0.4967256784 -0.8542484045
v -0.01588274539 0.01386126969 0.09358924627
vn -0.8823942542 -0.1955241561 0.4279610515
v -0.007348908111 0.002726417733 0.04518380761
vn -0.5311534405 -0.8403857946 0.1078320891
v -0.01331082825 0.01184564363 0.05768529698
vn -0.9871730208 -0.1590441018 -0.01394412573
v 0.01424214803 -0.01610445417 0.01596512645
vn 0.5677419305 0.2410489917 0.7871242166
v -0.01295250375 0.01827753894 0.06219045818
vn -0.923822999 0.329349637 -0.1951407045
v -0.0104518747 0.01560045872 0.03794756159
vn -0.8340999484 0.4218368232 -0.3554306626
v 0.01754455082 -0.01481544226 0.01260930207
vn 0.6655651331 0.3946641386 0.6334534883
v -0.0148226507 0.02378234267 0.08990013599
vn -0.6729950905 0.5799552798 0.4590528011
v 0.006177842151 0.002545086434 0.009853492491
vn 0.3870017529 0.9161323309 -0.1045522764
v -0.01400200278 0.01782244258 0.06635985523
vn -0.9625767469 0.1708396226 -0.2103802115
v -0.007248391397 -0.02411907539 0.01904165
vn -0.1860797107 0.1022089049 0.9772040248
v 0.01315673254 0.02792286128 0.0868986547
vn 0.6750261784 0.6835896969 0.2775695026
v 0.01139840763 0.0179419592 0.04721187055
vn 0.8877399564 0.452563107 -0.08428779244
v -0.006705377251 0.003314320697 0.02117372118
vn -0.8405387998 0.4986880124 -0.2116715461
v 0.01252497733 0.02423308231 0.06970130652
vn 0.8282849193 0.4384016991 -0.3489240408
v 0.001752353157 -0.03634503484 0.01331688371
vn -0.2180325538 -0.5501612425 -0.8060920835
v 0.00588375004 -0.03866049647 0.02435871586
vn -0.1124837548 0.3807617128 0.9178060293
v 0.01719604619 0.01717785001 0.08445076644
vn 0.9930313826 -0.1105561629 -0.04081746936
v 0.01204441022 0.02185151726 0.06531462073
vn 0.8585183024 0.4239042699 -0.2885333002
v 0.01298404485 0.01406246983 0.05643139407
vn 0.9977149963 0.05931242183 -0.03235454857
v 0.01296004932 0.02911140025 0.08207143843
vn 0.7223246694 0.6914300919 0.01309621334
v -0.006387148518 0.007678719703 0.09960226715
vn -0.2519309223 -0.6312437654 0.7335271835
v 0.0191642642 -0.03394698352 0.00989003107
vn 0.05759208649 -0.5509176254 -0.832570076
v 0.01388202142 -0.005238281097 0.002422292484
vn 0.7129307389 0.5795698762 -0.3947511911
v -0.01593486033 0.01263334882 0.0839779079
vn -0.8729531765 -0.4855377674 -0.04696581513
v 0.025192637 -0.03570208699 0.01321968064
vn 0.9315353632 -0.2787287831 -0.2335639149
v -0.02228384651 -0.03126645088 0.01030066609
vn -0.8842705488 -0.315441072 -0.3443290293
v -0.009545663372 0.01877458021 0.04109369591
vn -0.6986532211 0.663297832 -0.2681784332
v -0.006389790215 0.02136570401 0.04239603132
vn -0.3906570077 0.8982576132 -0.201296702
v -0.00769056147 0.007313098758 0.02756896429
vn -0.823587358 0.2996386886 -0.4815813005
v 0.0062313159 -0.001078335918 -0.000172435306
vn 0.1565283984 0.6954470873 -0.7013217211
v -0.005561684258 0.02219749987 0.04749964178
vn -0.3320675492 0.9384909868 -0.0946881026
v 0.02187884226 -0.04449960589 0.01787220873
vn 0.6607479453 -0.6747678518 -0.3287864625
v -0.01211287361 0.008231609128 0.074772425
vn -0.7456794381 -0.6648535132 -0.04395426437
v -0.01985213906 -0.0245083943 0.00580921676
vn -0.2988210917 -0.4065995514 -0.8633555174
v -0.00453091599 -0.04482939094 0.01948943362
vn -0.2932632267 -0.8744317889 -0.3864786029
v -0.009124129079 0.004604453687 0.05334690586
vn -0.6162171364 -0.7848981023 0.06489559263
v -0.02080936171 -0.01960507035 0.01167905051
vn -0.6477199793 0.4115988314 0.6411280632
v 0.0106527647 0.007006837521 0.09557278454
vn 0.6289191842 -0.6970977783 0.344260484
v -0.01831169985 -0.01563877985 0.01165055018
vn -0.6620026231 0.3710995018 0.6511817575
v 0.0170752909 0.01926587522 0.08919363469
vn 0.9712339044 0.09498605132 0.2183628529
v 0.007272048388 -0.04599074274 0.0178449899
vn -0.1098274812 -0.5469282269 -0.829944253
v 0.01214709599 -0.04450758547 0.02653353848
vn 0.1619090289 0.2092029005 0.9643752575
v -0.006470795721 -0.02404240333 0.005472789519
vn -0.0009539196617 -0.5585044026 -0.8295009732
v -0.01500752568 0.01305905357 0.07409410924
vn -0.9348220229 -0.3283412755 -0.1352767944
v -0.01603596844 0.01930947043 0.09228111058
vn -0.8012865186 0.2794368863 0.5290132165
v -0.002189363819 -0.0270548407 0.0198270306
vn -0.09810044616 0.1217652261 0.9876990914
v 0.01727680303 -0.02234161831 0.002266114345
vn 0.1948687434 -0.4232847989 -0.8847916126
v 0.00173837936 0.002493819688 0.007104914635
vn 0.04686978832 0.9534768462 -0.2978004217
v -0.002744683763 0.02437749505 0.05748055503
vn -0.1497785896 0.9514274001 -0.2689836919
v -0.01212625764 0.01566471718 0.04330283776
vn -0.9250289202 0.3395670354 -0.1703398824
v 0.01136062667 0.007242755033 0.04328839481
vn 0.934417367 -0.3484973311 -0.07357864827
v -0.005576366093 0.02736548893 0.09079157561
vn -0.1191587076 0.7449252605 0.6564202309
v 0.009151819162 -0.04194577038 0.0258032158
vn 0.02025081962 0.3895461857 0.9207842946
v 0.00823551137 -0.04595320299 0.0274669379
vn 0.005914490204 -0.06895241141 0.9976024032
v -0.01192051917 -0.02067290433 0.0172413066
vn -0.3833354115 0.1405096948 0.912858665
v -0.006995707285 0.005170642398 0.08597911149
vn -0.3371630609 -0.9398486614 0.05482298881
v -0.009943711571 -0.007399484515 -0.0006583173526
vn -0.3186007142 0.2434911579 -0.9160816669
v 0.01312692929 -0.03401697055 0.02181062102
vn 0.1591970623 0.3747188747 0.9133685231
v -0.0142521048 0.01049659867 0.07918390632
vn -0.827111721 -0.5583511591 -0.06426602602
v 0.01574503072 0.01711444184 0.09394539148
vn 0.8944224119 0.06322870404 0.4427308738
v -0.01194544137 -0.01122111734 -0.0004432855931
vn -0.28528139 0.003262229497 -0.9584382772
v -0.01181884855 0.007762087975 0.05550372973
vn -0.8555130363 -0.5166636109 0.03400246426
v 0.006403029431 -0.0041148155 0.02239247039
vn 0.7554386854 -0.3510917723 0.5532151461
v -0.00787692517 -0.0336762704 0.02057817951
vn -0.09976233542 0.278208971 0.9553257227
v -0.007827181369 0.02977115288 0.08687122166
vn -0.2504886389 0.8602061272 0.4441856146
v 0.01604513265 0.01319496986 0.08369828016
vn 0.923553884 -0.3793451786 -0.05608484894
v -0.01732765511 0.01961536892 0.08065281808
vn -0.9889985919 0.06276296824 -0.1339500695
v -0.0002638878068 0.007806021255 0.02290499024
vn 0.0570647046 0.7982242703 -0.5996512771
v 0.02101752721 -0.03718985617 0.02159667388
vn 0.4005414546 0.3562009931 0.8442081213
v 0.003136599436 -0.0474444665 0.02710400522
vn -0.2101672143 -0.3984556198 0.892783761
v 0.01649528369 -0.009391221218 0.001903212629
vn 0.7390333414 0.4803128839 -0.4723655581
v 0.01420266367 -0.03446535021 0.01021053363
vn 0.007746342104 -0.5579822659 -0.829816699
v 0.009441866539 0.005487510469 0.08973892778
vn 0.4333407581 -0.8985446095 0.06952278316
v 0.01455435436 0.01195041277 0.09466636926
vn 0.8502029181 -0.365424931 0.3789717555
v 0.008830463514 0.01729429141 0.0994412452
vn 0.2383872122 0.3634220362 0.9006086588
v 0.002406945452 0.01824949309 0.03327784315
vn 0.1172280014 0.7814017534 -0.6129183173
v 0.01021797489 -0.03127649799 0.021326432
vn 0.1601377428 0.2883107364 0.9440512657
v -0.01579713263 -0.01138416771 0.01194397733
vn -0.7138360739 0.3535951972 0.6044902802
v -0.01165238395 -0.02650913596 0.01827042177
vn -0.266355902 0.18321082 0.9463024735
v 0.004235967062 0.03278508037 0.08080413938
vn 0.02064521052 0.9952562451 0.09507223219
v 0.005836188793 0.001550497022 0.04701231048
vn 0.3378475904 -0.9379310012 0.07838624716
v -0.001031789347 0.006829229649 0.09971407801
vn -0.1054754257 -0.6027936339 0.7908949256
v 0.01797639206 -0.03334851936 0.02056623437
vn 0.2248850316 0.4023020267 0.8874569535
v -0.01137937885 0.02986203134 0.08001542091
vn -0.5627852678 0.8255357742 -0.04199354723
v -0.01269854512 -0.04164185748 0.01722195372
vn -0.4833792746 -0.871752739 -0.07994788885
v -0.006000564899 -0.01618687622 0.0002930172195
vn -0.02830195613 -0.4531136453 -0.8910033703
v -0.01255096216 0.01779322699 0.09630475938
vn -0.5264422297 0.3435426056 0.7777127028
v 0.02355996892 -0.03297193721 0.01004939806
vn 0.5226756334 -0.4488337934 -0.7248161435
v 0.01357544307 -0.01046430692 0.01448896062
vn 0.7228901386 0.297385484 0.6236920357
v 0.008550146595 -0.009091489017 -0.002685245126
vn 0.18297185 0.08955867589 -0.9790304303
v -0.003955740016 -0.00030776934 0.001535059651
vn -0.1559397727 0.7437674403 -0.6499944329
v -0.01720978506 -0.01805223525 0.002245775657
vn -0.2593928277 -0.2950486243 -0.919598639
v -0.009693657979 0.01975105144 0.04573458433
vn -0.6827725768 0.7231389284 -0.1043634266
v 0.01464974973 0.01225852594 0.07566304505
vn 0.9216884971 -0.3662157357 -0.1279699504
v -0.008421897888 -0.04179247469 0.01741416939
vn 0.016427055 -0.5517839789 -0.8338252902
v 0.01146124955 -0.01327303704 -0.001999731641
vn 0.2243732959 -0.09922478348 -0.9694385529
v 0.01343828533 0.01208530925 0.06609234214
vn 0.9702370167 -0.2237378657 -0.09263664484
v -0.002709699562 -0.02172888257 0.01938591711
vn -0.08757396042 0.03288948536 0.9956149459
v -0.01462207548 0.02321211435 0.07348676026
vn -0.8629086018 0.3855689764 -0.326688379
v -0.004752704874 0.03239110485 0.07804344594
vn -0.1874906272 0.9800929427 -0.06530736387
v 0.0119794216 0.01830913126 0.05810542777
vn 0.9165663123 0.3810540736 -0.121260196
v -0.007102693431 -0.0032721553 0.02243959904
vn -0.8437951207 -0.3730477095 0.3858046532
v 0.01413341332 -0.006495656911 0.0106281694
vn 0.7973797321 0.4749608934 0.3722871244
v 0.007362263277 0.0009171950514 0.02317385748
vn 0.9971394539 0.07485251874 -0.0104878312
v 0.01426847745 0.009941651486 0.08528222144
vn 0.8225122094 -0.5686285496 -0.01163046528
v -0.01826751232 -0.03332365304 0.0115628317
vn -0.08955644071 -0.5976811051 -0.7967163324
v 0.008455610834 0.03067091294 0.07281974703
vn 0.400834918 0.8377600908 -0.3707955778
v 0.001291586086 0.03157996014 0.0847306028
vn -0.06418479234 0.9325572252 0.355270803
v 0.01027002931 -0.01315652952 0.0181998089
vn 0.572542727 0.09453699738 0.8144062757
v 0.006994290277 0.0242461171 0.05883973464
vn 0.3694370687 0.8819243312 -0.2927896082
v -0.0071839476 -0.03822787851 0.01505124941
vn 0.01101347338 -0.5576276779 -0.8300181031
v 9.803893772e-05 -0.04408718273 0.01882512122
vn -0.1599863321 -0.5440464616 -0.8236612082
v -0.00602579629 -0.04288188741 0.0243287459
vn -0.5206421614 -0.6534599066 0.5494741797
v 0.008718866855 0.02487761155 0.06309361756
vn 0.5510177016 0.7521767616 -0.361399591
v -0.008065300994 -0.04038437083 0.02315500937
vn -0.3089404404 -0.02789491974 0.9506722093
v 0.01842983626 -0.04695696756 0.01907571778
vn 0.4055227339 -0.8057363033 -0.4316715002
v -0.01304866094 0.02743152529 0.08653558046
vn -0.5971538424 0.7270228863 0.3388879597
v -0.0008260576869 0.001694480306 0.05087158084
vn -0.05944425613 -0.993237555 0.09972751886
v 0.007988120429 0.01198409311 0.03045842424
vn 0.6896440983 0.3753140569 -0.6192982793
v 0.01627724059 0.01515326649 0.07980032265
vn 0.9654862285 -0.2167998701 -0.1443404555
v 0.005473913159 0.004506225698 0.09335108846
vn 0.162067771 -0.9812788367 0.1040476188
v -0.007690221537 0.0002641793108 0.02390777506
vn -0.995228827 -0.09536610544 0.02061309479
v -0.01046253182 0.00863910187 0.09769121557
vn -0.5946334004 -0.5741588473 0.5628079176
v -0.01652381197 0.01520416699 0.07968917489
vn -0.9501971602 -0.2809241712 -0.1349333376
v 0.009975855239 0.005514130462 0.06329292804
vn 0.7140040994 -0.6993725896 0.0328040868
v -0.004818762187 0.0006914375117 0.04139279947
vn -0.3485422134 -0.9064794779 0.2383553684
v -0.01371409837 -0.03337803483 0.01172892377
vn 0.01545129158 -0.5579188466 -0.8297516704
v 0.01238061115 0.02728433535 0.07340791821
vn 0.7608759403 0.561303854 -0.3255852163
v -0.008107653819 -0.01176414266 -0.001168761053
vn -0.1177843809 -0.1534729749 -0.9811080098
v 0.01224646717 0.007949100807 0.07715026289
vn 0.7726793289 -0.6327605247 -0.05080114305
v 0.003460576991 -0.04707348347 0.01954460889
vn -0.2421313226 -0.543348372 -0.8038313985
v 0.005945866928 -0.002192773623 0.02689651027
vn 0.7395002842 -0.6480329037 0.182188496
v -0.008736364543 0.002958990168 0.03989420086
vn -0.7398110032 -0.6655820012 0.0983883515
v 0.01717277244 -0.02576805092 0.01750992611
vn 0.3459832668 0.3344077468 0.876622498
v 0.01010711025 0.02548520826 0.06652733684
vn 0.6721118093 0.6246187687 -0.3976394832
v -0.0154889971 -0.01384208631 0.0006448447239
vn -0.4164604247 -0.002545772353 -0.9091503024
v 0.003146647243 0.006575842388 0.09984723479
vn -0.05299752206 -0.6680383086 0.7422372103
v -0.0184802264 -0.02737974934 0.01629319228
vn -0.3117641211 0.3465868831 0.8846924305
v 0.009911801666 0.01370698214 0.03494587913
vn 0.8672661185 0.2856903076 -0.4077138007
v -0.01213453989 -0.03177216277 0.01940058358
vn -0.1742913574 0.2892100513 0.9412651658
v 0.003564834595 0.02903897502 0.08992168307
vn -0.06719332933 0.8051505089 0.5892518163
v -0.00108795776 0.02555720508 0.09290177375
vn -0.07732520998 0.6761434078 0.7327010632
v 0.008653853089 0.02101490833 0.04474246502
vn 0.6087436676 0.7817254066 -0.1354125142
v 0.00480148755 0.0297329165 0.06937708706
vn 0.1383544505 0.8794205189 -0.455497086
v 0.01114909351 -0.0380166769 0.02383549511
vn 0.09796673059 0.3979516923 0.912160635
v -0.006025105249 -0.002489471808 0.02726240829
vn -0.6713660955 -0.7056940794 0.2264142036
v -0.02270934358 -0.02283912525 0.01210927684
vn -0.8773651719 0.1697989851 0.448774606
v -0.003266607877 0.005353867076 0.01895434782
vn -0.2931780517 0.8863313794 -0.3584177494
v -0.004482048098 -0.02919588238 0.008981944062
vn -0.02651505545 -0.5607618093 -0.8275524974
v 0.02160234377 -0.03653173149 0.0117677236
vn 0.210203588 -0.5460422635 -0.8109576106
v 0.01336405892 0.008794695139 0.09013212472
vn 0.7723261714 -0.6283929348 0.09292267263
v 0.001025723759 0.003222202882 0.06828901172
vn -0.01468106452 -0.9978064895 0.0645500049
v -0.001844406594 0.003234640695 0.009511317126
vn -0.1344261318 0.9616467953 -0.2390920371
v -0.009045985527 -0.04382227361 0.01872495934
vn -0.4735003114 -0.8416353464 0.2597063482
v -0.01221930236 0.02119377255 0.06487961859
vn -0.8211969137 0.493262738 -0.2869277596
v -0.01961277984 -0.01501868013 0.002998538315
vn -0.7969835997 0.2645860612 -0.5429653525
v 0.008592781611 0.002923958236 0.04276270792
vn 0.6941738129 -0.7174639702 0.05803572387
v -0.004364981316 0.0230995398 0.05251101404
vn -0.2477362007 0.9583839178 -0.1418696344
v 0.005003220867 0.02250776254 0.04532571137
vn 0.2033930421 0.9737040401 -0.1026239917
v -0.002220942406 -0.01737504825 0.01962538622
vn -0.08928783983 -0.1115242392 0.9897423983
v -0.00804982055 0.005338982679 0.0808763653
vn -0.4073245227 -0.9123683572 0.04087501764
v 0.004766211845 0.005240553059 0.02202242613
vn 0.5740490556 0.6946772933 -0.4334641397
v 0.008756073192 0.01794894785 0.03702156991
vn 0.6944220662 0.5975957513 -0.4008207619
v 0.01450655889 0.01441711374 0.07063852251
vn 0.9728317857 -0.1647204906 -0.1626822054
v -0.0127756102 0.009757418185 0.06543648988
vn -0.8908042908 -0.4529113472 -0.03659188375
v 0.006797398906 0.002537005115 0.05557697266
vn 0.3674432635 -0.9265789986 0.08022957295
v -0.003871077206 -0.0324675031 0.0205728747
vn -0.06762325019 0.215847224 0.9740827084
v -0.002329462674 -0.03716764599 0.01439023856
vn -0.05052223802 -0.5508226156 -0.8330917954
v 0.006465841085 0.01682659425 0.03279200196
vn 0.4879441857 0.6096628904 -0.6246772408
v -0.01838116907 -0.03731165081 0.01431521587
vn -0.5333635807 -0.8184065819 -0.2138551325
v 0.009893725626 -7.675126108e-05 0.00822228007
vn 0.6398803592 0.7682151794 -0.01996391639
v 0.026495317 -0.03014582023 0.01317683049
vn 0.9717354178 0.09592410177 0.2157054693
v -0.00836739596 0.01549050212 0.09892851859
vn -0.2618834674 0.336455822 0.9045521021
v -0.007742504589 0.0038559807 0.02539691888
vn -0.932456553 0.2027994096 -0.2989936471
v 0.009481457062 0.005184814334 0.06855650991
vn 0.6061027646 -0.7950962782 0.02147804014
v -0.0009279092192 -0.01662575826 0.0004920454812
vn -0.1086389422 -0.4781879485 -0.871512413
v -0.01041742135 -0.02735388465 0.007674899884
vn 0.007830120623 -0.5601039529 -0.8283852935
v 0.00343265594 0.03156303614 0.0733255744
vn 0.05833116919 0.9353500009 -0.348880887
v 0.0131540224 -0.003528747708 0.00701190671
vn 0.7704691291 0.6364021897 0.03700736165
v -0.01366414409 -0.007067040075 0.01189691108
vn -0.7963404655 0.4172385037 0.4378970861
v 0.0124574462 0.01884014159 0.06220904365
vn 0.9285920262 0.3178288937 -0.1915766746
v 0.01251025498 0.009782182984 0.06090800092
vn 0.9485681653 -0.3160147667 -0.01879179664
v 0.001586474595 0.02800738253 0.06622830778
vn 0.006066444796 0.8872177005 -0.4613111019
v -0.0006394372322 -0.0489725098 0.02536226809
vn -0.5490298271 -0.69149369 0.4694707096
v 0.004199835937 0.02608749457 0.06241578981
vn 0.1265321821 0.9072140455 -0.4011885822
v 0.001878715702 0.02075801417 0.03748324886
vn 0.05946644023 0.9115775824 -0.4068046808
v 0.01713944785 -0.01057932153 0.009857530706
vn 0.7680305243 0.4864113927 0.416572988
v -0.01674470864 -0.03744346276 0.02092146128
vn -0.6698669791 -0.5971798301 0.4411966801
v -0.0008035469218 -0.03322225809 0.01165720169
vn -0.1054512933 -0.5704340339 -0.8145459294
v 0.01054079086 0.03052600846 0.08503847569
vn 0.4819308817 0.8419739604 0.2425333858
v 0.002018299419 -0.02063000388 0.002553333994
vn -0.2005663067 -0.5471420884 -0.8126553297
v -0.000866584538 0.03222996742 0.07494912297
vn -0.04362082481 0.9683262706 -0.2458483428
v 0.005435555708 0.01383861713 0.1010637879
vn 0.05717214942 0.230022043 0.9715046287
v -0.02378315106 -0.02099309862 0.008173096925
vn -0.9589163065 0.1111659706 -0.2610012889
v -0.02300587483 -0.02684058435 0.007790290751
vn -0.8934499025 -0.2588507235 -0.3670743108
v 0.005041446071 0.003367179306 0.07116832584
vn 0.1890150905 -0.980435729 0.05494588241
v 0.02264283039 -0.04140299186 0.02228864655
vn 0.7607231736 -0.1280440837 0.6363214254
v -0.02357407846 -0.03447631001 0.01462270506
vn -0.8504011035 -0.5255734921 -0.02429895289
v 0.02406217344 -0.02444817685 0.01294172276
vn 0.8146318793 0.3953621984 0.4243390858
v 0.003929569386 0.004159302451 0.0876794681
vn 0.07416063547 -0.9949851632 0.06711751968
v 0.003874736605 -0.04403331131 0.01737982221
vn -0.2532618344 -0.5167523026 -0.8178175092
v -0.01349065825 -0.01882626303 0.002110033063
vn -0.07830531895 -0.4519331753 -0.8886082768
v -0.005498687271 -0.01439470518 0.0195822604
vn -0.2791045308 -0.1386264265 0.9502017498
v 0.01028613746 0.005477212835 0.03822015598
vn 0.9251663685 -0.3729812801 -0.0703715682
v -0.01251725666 -0.03905456513 0.02223091014
vn -0.4139211774 -0.4231409729 0.805990696
v 0.00661659753 0.002366243163 0.01808100753
vn 0.7531489134 0.6574093103 -0.02407613397
v 0.0120780943 -0.05038509518 0.02133285627
vn 0.2522379756 -0.9135810137 -0.3189761639
v -0.002582317917 0.004126432352 0.01388540212
vn -0.1940895319 0.9596766233 -0.2033471763
v -0.0002719321637 0.03034451976 0.07030462474
vn -0.0316529721 0.8958095312 -0.4433096051
v 0.01558604371 0.02408617549 0.08865606785
vn 0.8294873834 0.4757585824 0.2925823331
v -0.01470196433 0.01059928536 0.08887387067
vn -0.7878739834 -0.6141422391 0.04564987496
v -0.002257604385 0.02961501107 0.0883897543
vn -0.07397807389 0.8338956833 0.5469416976
v 0.01130180992 0.03018705733 0.07726927847
vn 0.6352316737 0.7495010495 -0.1863568723
v 0.01904835552 -0.02967288904 0.01858300902
vn 0.2786048055 0.3969347477 0.8745411038
v 0.005931054242 -0.03100112453 0.0217185244
vn -0.06363255531 0.238071695 0.9691608548
v 0.01670733839 0.02082290314 0.08001366258
vn 0.9783779383 0.1305728704 -0.1603973955
v -0.001776819816 0.004400184844 0.087259233
vn -0.09357171506 -0.9926438332 0.07682805508
v 0.01675541326 -0.0431397222 0.01596264355
vn 0.05401644483 -0.574616909 -0.8166379929
v 0.007166041993 -0.02316691354 0.02041428722
vn 0.1010926962 0.1325809807 0.9860033393
v 0.004231200088 0.0007028736291 0.04239168763
vn 0.24918814 -0.9496157765 0.1900925636
v -0.01435096655 -0.01553318929 0.01485478785
vn -0.5743057728 0.2083532959 0.7916828394
v -0.01893878542 -0.01220684405 0.008184680715
vn -0.8443435431 0.4927821755 0.2103560567
v 0.01308304351 0.01600775868 0.09755124152
vn 0.6850810051 0.1247928962 0.7176982164
v 0.01371443179 0.01692832075 0.06592902541
vn 0.9756869078 0.1076553687 -0.1909067631
v 0.008564470336 -0.00221156911 0.01857507974
vn 0.9139487743 0.2195924371 0.3412869871
v -0.00507886894 -0.03737903014 0.02200929821
vn -0.04626788571 0.3480439782 0.9363358021
v 0.003659573616 0.00169553759 0.05111263692
vn 0.08969558775 -0.9911665916 0.09769085795
v -0.016297305 -0.008624794893 0.008708671667
vn -0.7981386185 0.5342375636 0.2785049081
v -0.007762013003 0.01995076984 0.0966482386
vn -0.1904621869 0.5343496203 0.8235257268
v 2.344462155e-05 -0.02480438724 0.005883755162
vn -0.1318262219 -0.5496303439 -0.8249413967
v 0.02029452287 -0.04529297724 0.02358538844
vn 0.7314114571 -0.4492395222 0.5130507946
v 0.01707716845 0.02148320153 0.08528006077
vn 0.9781117439 0.207230404 0.01878903992
v 0.009203900583 0.003654550528 0.03320598975
vn 0.9257900119 -0.3649945557 -0.09844731539
v -0.006191251334 0.02499233373 0.06168915704
vn -0.3570804298 0.8636811376 -0.3557364941
v -0.00513348775 0.005057417322 0.09095586091
vn -0.2140286416 -0.9740881324 0.07310305536
v 0.0116587989 0.01807761937 0.05287917331
vn 0.8883054852 0.4540235102 -0.06910839677
v 0.0007251438219 -0.01947513409 0.01952066272
vn -0.07457506657 -0.03263322264 0.9966813326
v 0.0112834461 -0.004894000478 0.01462026127
vn 0.8262816072 0.3444949687 0.4456253648
v -0.006538207643 0.02406287007 0.09378410876
vn -0.1404376477 0.6398431659 0.7555646896
v -0.001252109185 0.002479413524 0.05866008624
vn -0.07307097316 -0.9929425716 0.09341128916
v -0.01063275896 -0.001395363593 0.006700885016
vn -0.6542221308 0.750500977 -0.0934971571
v 0.002563312184 0.03250611573 0.07700526714
vn -0.003164574038 0.9900634885 -0.1405854672
v -0.003840920981 -0.04196520522 0.0239421241
vn -0.03571591526 0.3916391432 0.9194254279
v -0.003768382827 0.01220803987 0.1006999165
vn -0.1068638116 0.07543468475 0.9914079309
v -0.01687936299 -0.01982431114 0.01445144229
vn -0.4967696071 0.2735622525 0.8236404657
v -0.008523141034 -0.01067710761 0.01872594096
vn -0.571136415 -0.05626245588 0.8189247251
v 0.01294065919 0.01355716493 0.05065726489
vn 0.9958489537 0.0805458948 -0.042393554
v 0.00594838243 0.005266152322 0.0977345258
vn 0.2510274947 -0.8870097399 0.3875550032
v -0.0106397802 -0.00598900998 0.01637828909
vn -0.817225337 0.1997315586 0.5406016111
v -0.01247095596 0.01647457294 0.04963841662
vn -0.9206187725 0.3842052221 -0.06962370127
v 0.02171190456 -0.04016223922 0.01420938596
vn 0.3924532533 -0.5856571794 -0.7092151046
v -0.02163347974 -0.0163595099 0.007757717744
vn -0.9062017202 0.419190377 0.05547821894
v -0.005264848005 0.03092967719 0.07253109664
vn -0.2628062069 0.8896515369 -0.3734341562
v -0.008620312437 0.01136993617 0.09983718395
vn -0.3550436795 -0.04442555457 0.9337935448
v -0.008041164838 -0.0002416250791 0.01982257329
vn -0.959851563 0.2455046177 0.1356925517
v -0.0009882219601 -0.01321777981 0.02045277134
vn -0.0629915297 -0.2294160426 0.9712879658
v -0.0002091915958 0.01857352257 0.09811326861
vn -0.06249110773 0.513886869 0.8555788398
v 0.01889042743 -0.01124554686 0.005417427514
vn 0.8347895145 0.5482873321 -0.05007469654
v -0.01561858039 -0.0243778713 0.01638399065
vn -0.374276191 0.2429995686 0.8949126005
v -0.006580886431 0.002619334031 0.01648963243
vn -0.6757456064 0.7321043015 -0.08597173542
v -0.01220072154 0.01109401602 0.04036395252
vn -0.9811680317 -0.03091788478 -0.190665707
v -0.002901262604 -0.04477218166 0.02521484531
vn -0.6628078818 -0.5936111212 0.4564116299
v -0.008434788324 0.006356647238 0.09470822662
vn -0.3880967796 -0.8989369273 0.2032075077
v 0.004448020831 0.003706343006 0.08206008375
vn 0.1101778224 -0.9925416112 0.05217297375
v 0.001882438082 0.004605039489 0.01734135114
vn 0.2199521065 0.9337204695 -0.2824661434
v 0.0161363855 -0.03746216372 0.02283963375
vn 0.1705250889 0.4078214765 0.8969965577
v 0.02096383087 -0.01467287913 0.004655809607
vn 0.8740698099 0.4169331789 -0.2493364811
v -0.007176709827 -0.006709419191 0.0203890074
vn -0.6664860845 -0.2289411575 0.7094943523
v 0.01973896474 -0.02269003913 0.01506715361
vn 0.4810703397 0.3998395801 0.7801920772
v 0.01573289186 0.01739128493 0.07498700917
vn 0.9764137864 -0.04463813454 -0.2112428695
v -0.009106692858 0.005013034213 0.05899132788
vn -0.6023803353 -0.7957473993 0.06264215708
v 0.01772916503 -0.01873068884 0.01443234459
vn 0.5501616597 0.350756824 0.7578204274
v -0.00383426249 0.01723903604 0.09880264103
vn -0.08235406131 0.4458222389 0.8913250566
v 0.01444143523 0.02207748219 0.09305011481
vn 0.7086363435 0.44504565 0.547511518
v -0.0002449525928 0.0326576829 0.07981084287
vn -0.04281879961 0.9965732694 0.07076877356
v -0.01152976137 0.022286525 0.09374763072
vn -0.3899301589 0.5765464306 0.7180172205
v 0.007033331785 0.00862157438 0.1013592109
vn 0.3414553404 -0.3810162544 0.8592059612
v 0.002036117716 -0.01604987122 0.01992173865
vn -0.03156331554 -0.1246449202 0.9916992784
v 0.007466512267 0.003345301142 0.06044269353
vn 0.4502061009 -0.8898543119 0.07398482412
v -0.01178854331 0.007226148155 0.04987878352
vn -0.867782712 -0.4968163669 0.01125508361
v 0.009126543999 -0.007704554126 0.01878944226
vn 0.7206586003 0.06050608307 0.6906447411
v 0.01262503862 0.008968869224 0.07117459178
vn 0.8599883318 -0.5067862272 -0.05989792198
v 0.02194290608 -0.02733298577 0.01639991812
vn 0.5155004859 0.4056138396 0.7548090219
v 0.00146307284 -0.01298351958 -0.00150867342
vn -0.1655943394 -0.2546453476 -0.9527509212
v -0.008058670908 0.001051308238 0.02748536319
vn -0.9476191401 -0.3127972484 -0.06462083012
v 0.001016233116 -0.03135850653 0.0206997972
vn -0.1489122361 0.1870309114 0.9710018635
v -0.008731926791 -0.01968144439 0.002525008982
vn -0.01070440747 -0.533878386 -0.8454935551
v 0.003791227471 -0.008955559693 -0.002541616559
vn -0.1368675679 0.008345695212 -0.9905542135
v -0.002470158041 -0.003626042977 -0.0009534448618
vn -0.06178479269 0.3909261525 -0.9183459878
v -0.01214860938 0.008561422117 0.06096393242
vn -0.867415607 -0.4973040521 0.01669866405
v -0.007912272587 0.01529496629 0.03315549344
vn -0.6653026342 0.5287848115 -0.527028501
v -0.003460454522 0.004185291007 0.08263003081
vn -0.149258554 -0.986854732 0.06196447834
v -0.004584444687 0.01016469114 0.026378721
vn -0.3916912079 0.6034277081 -0.6945883632
v -0.005873915739 -0.03413809463 0.01231023017
vn 0.003051082604 -0.5603207946 -0.8282700777
v -0.0003592572757 0.0002565823379 0.04202721268
vn -0.01319836918 -0.9646109343 0.2633467615
v -0.01129735541 0.007324798033 0.07889599353
vn -0.6315422058 -0.7753102183 -0.006967348047
v -0.01105034444 0.006275240332 0.04383802041
vn -0.8676787019 -0.4964300692 -0.02628353052
v -0.01006816886 0.02625848539 0.09069424123
vn -0.3288387954 0.7174248695 0.6141389608
v 0.01018538047 0.008699279279 0.03390404209
vn 0.9571197629 -0.01471750997 -0.2893183827
v 0.0142291747 -0.02941818722 0.01980627887
vn 0.249580577 0.3172527552 0.9149099588
v -0.008123732172 0.03131275997 0.08156871796
vn -0.3105457425 0.9420540929 0.1268678457
v 0.01026728656 0.005237685051 0.05263310671
vn 0.7863712907 -0.6162886024 0.04252646491
v -0.009321807884 -0.001115734805 0.01556582283
vn -0.8546407819 0.487932682 0.1775129884
v 0.005494406447 -0.02773012407 0.005961184856
vn -0.1763526648 -0.5484092832 -0.8174026012
v 0.01860532537 -0.04105523974 0.02396723069
vn 0.3063077033 0.2820883393 0.9091764092
v -0.004535370972 0.01411957946 0.02951554582
vn -0.3484022617 0.5988652706 -0.7210937738
v 0.001883879653 -0.04030499235 0.01584087126
vn -0.2016298026 -0.5368101001 -0.8192559481
v -0.01039902586 0.02199737355 0.06150284782
vn -0.6885486245 0.6703788042 -0.2765736878
v -0.01420590095 -0.005023451522 0.006565239746
vn -0.7811003327 0.6230050325 -0.04179688543
v -0.01480726153 -0.03641504049 0.01372817345
vn 0.01291327085 -0.5563284755 -0.8308621049
v 0.005829527508 -0.037976522 0.01281456929
vn -0.1707122028 -0.5471920371 -0.8194133043
v 0.001918913098 -0.02296928316 0.01972457953
vn -0.1070218459 0.08652494103 0.9904845953
v 0.0008649611846 0.0002775432076 0.001839889213
vn -0.0309315715 0.7872409821 -0.6158692241
v 0.008327281103 -0.03459763154 0.02273733728
vn 0.02761082537 0.3435086906 0.9387435317
v -0.001397053944 -0.004144870676 0.02864575386
vn -0.0981830135 -0.9434236884 0.3167205155
v -0.004339652602 0.004032132216 0.07767260075
vn -0.1890453249 -0.9809753299 0.04415051267
v 0.008901182562 0.004836349748 0.07952514291
vn 0.4657859206 -0.884883523 0.004958255682
v -0.006688082591 -0.01900146157 0.01883575879
vn -0.2445147336 0.001327978563 0.9696446657
v 0.004788669758 -0.02408123948 0.003772446187
vn -0.2175686061 -0.5354740024 -0.8160462976
v 0.0161852818 -0.007318753283 0.006250951439
vn 0.8147483468 0.5781428218 0.04399946332
v 0.001546373242 0.002155096736 0.05516213179
vn 0.01920151897 -0.9950231314 0.09777662158
v 0.01630212739 0.01359029114 0.08879122883
vn 0.9419523478 -0.3182211816 0.1070560589
v -0.01743945293 -0.009653369896 0.00409799302
vn -0.7987062335 0.4959762394 -0.3406992257
v 0.009718454443 0.004311203025 0.04756212607
vn 0.7605709434 -0.6491816044 0.009750388563
v -0.0001671320351 -0.04455296695 0.02525889128
vn -0.1978492439 0.2877403498 0.9370491505
v -0.0007230939809 -0.008379559033 -0.001772343996
vn -0.09021398425 0.03229488805 -0.9953986406
v -0.01641481556 -0.02187121846 0.004056555685
vn -0.07293679565 -0.4936385453 -0.8666032553
v 0.009529910982 0.02793168463 0.06933265179
vn 0.5503838062 0.7158515453 -0.4296908379
v -0.01035182737 0.02744938806 0.07097543031
vn -0.5843136311 0.7060896158 -0.4000187814
v -0.01289360877 0.009139716625 0.09387949854
vn -0.7204449177 -0.6464693546 0.2510706484
v -0.00752418628 -1.659582085e-05 0.003909620456
vn -0.4061905742 0.8287727833 -0.3848959208
v 0.01446445659 -0.04740741104 0.01880659536
vn 0.1494965404 -0.7082294226 -0.6899723411
v 0.0227433797 -0.01806349307 0.006463026628
vn 0.9417626858 0.3142542541 -0.1196966767
v -0.003195557743 0.005132105667 0.09570167214
vn -0.1465540081 -0.9561544061 0.2535559833
v 0.01182700135 0.008138541132 0.06607306749
vn 0.8623914123 -0.5055711865 -0.02605365403
v -0.01180359442 0.01893185452 0.05811762437
vn -0.8315471411 0.5310810208 -0.162733838
v -0.01315021981 0.01556904055 0.0592340678
vn -0.9789198637 0.1847465634 -0.08708965033
v -0.002282796893 0.003155979561 0.06636054069
vn -0.0931821987 -0.9937166572 0.0620027259
v 0.006996810436 -0.04216960818 0.01538747735
vn -0.1210457981 -0.5379066467 -0.8342687488
v -0.0132461926 0.01145126764 0.0523048602
vn -0.9939258099 -0.10866227 -0.01743410155
v 0.005526002496 0.002954465803 0.06509565562
vn 0.2379906774 -0.9688788056 0.06807565689
v -0.009894592687 0.007316758856 0.0321434401
vn -0.948063612 -0.00596875418 -0.3180248737
v 0.02511858381 -0.02813744359 0.00858934503
vn 0.891313374 -0.08134324104 -0.4460310936
v 0.0005065705045 0.02354565635 0.05355206877
vn 0.003304665675 0.9856526852 -0.1687538475
v -0.0130124595 0.01554781944 0.05515437201
vn -0.9683042169 0.2444966435 -0.05107151344
v 0.01175354142 0.00710407272 0.0864668116
vn 0.6619184613 -0.7494919896 0.0112100495
v 0.00263641635 -0.0009015462711 0.03769501299
vn 0.2082752287 -0.9378938675 0.2774463892
v -0.006568161771 0.01926936768 0.03694250807
vn -0.4675166905 0.7779616117 -0.4197664559
v -0.002421427052 0.003398822155 0.06983037293
vn -0.0980437398 -0.9929111004 0.06719327718
v 0.0002521573624 0.003838626901 0.079546839
vn -0.04947300628 -0.9976932406 0.0464820601
v 0.002698075492 -0.003268118016 0.02929136716
vn 0.3035215735 -0.9176014662 0.2566753924
v 0.008157671429 0.002190473257 0.02831353433
vn 0.9541261792 -0.2841736674 -0.09427946061
v 0.006661867723 0.03253918141 0.07680185884
vn 0.2259144336 0.9584676027 -0.1740763634
v -0.005421812646 -0.007796333637 -0.001534472918
vn -0.1056330502 0.09195377678 -0.9901444912
v 0.01035864279 0.005662978627 0.05801650882
vn 0.7840333581 -0.6197416186 0.03481475636
v 0.00189460523 0.003620155388 0.01190145873
vn 0.1107575148 0.9762353301 -0.1862722337
v 0.007908271626 0.02725580148 0.09246813506
vn 0.1176740378 0.7293506861 0.6739439368
v -0.007631430402 0.0001991540485 0.03137051687
vn -0.7964469194 -0.5987222195 0.08487638086
v -0.02031010389 -0.0198589433 0.00381144858
vn -0.6441972256 -0.1378975213 -0.7523258924
v 0.02029560693 -0.01438064128 0.00868893601
vn 0.8046609759 0.4910722077 0.3337197006
v -0.01107091364 0.02963061817 0.08356912434
vn -0.4826531708 0.848935008 0.2153026164
v -0.004464601167 0.01740914397 0.0325640589
vn -0.3175680041 0.733522296 -0.6009123325
v 0.01452135108 0.01076652855 0.08055058867
vn 0.8591833115 -0.5043849945 -0.08602232486
v -0.01418972388 0.02741735615 0.0816706568
vn -0.7703121305 0.6375836134 0.01031353418
v -0.01749546826 0.02007165365 0.08789101243
vn -0.9578648806 0.209611252 0.1963618994
v 0.01576690376 0.02524500526 0.08358208835
vn 0.8879944682 0.4598308504 0.004623136483
v 0.007466478739 -0.04951132089 0.02017998509
vn -0.08611363918 -0.7204743624 -0.6881141663
v -0.005620699842 0.002407719614 0.05082338303
vn -0.3367462456 -0.9375965595 0.08668743819
v 0.001840142184 0.005148606375 0.09654321522
vn -0.05447766557 -0.9638612866 0.2607749701
v 0.009071158245 -0.02757917903 0.02071326971
vn 0.1558694094 0.1996446401 0.9673917294
v 0.0006237643538 -0.002706521191 0.03325026855
vn 0.1098026037 -0.9508187771 0.289632678
v 0.002121677622 -0.004420499317 -0.00146039715
vn -0.1161180884 0.3755815923 -0.9194862843
v -0.01953379624 -0.02336944453 0.01426089741
vn -0.4350343347 0.348051548 0.830424726
v 0.01184051204 0.01997219771 0.09669356048
vn 0.4850858152 0.4459348619 0.7522192597
v -0.009168238379 0.03069019318 0.07648947835
vn -0.4504112303 0.8629438877 -0.229036212
v -0.02213235386 -0.02623690106 0.01434754115
vn -0.8865727186 0.0881292671 0.4541167319
v -0.01309535932 0.01110609714 0.04635600001
vn -0.992212534 -0.09616419673 -0.07916285098
v -0.008916732855 0.0208648406 0.05099336803
vn -0.5942371488 0.7977166772 -0.1026173905
v 0.01054031495 0.02180060558 0.06041456759
vn 0.7675523162 0.5942959785 -0.2401576042
v 0.008877977729 -0.0346249491 0.01024826057
vn -0.05066419393 -0.562169373 -0.8254687786
v -0.004177150782 -0.01012354717 0.02093882486
vn -0.2878463268 -0.3269794881 0.9001271725
v -0.005642013624 0.003873583162 0.06794841588
vn -0.3483273387 -0.9360476136 0.04982931539
v -0.008164679632 0.0222860314 0.05658694729
vn -0.5168185234 0.8311510682 -0.2051499039
v -0.005114392377 0.003983801231 0.0727340132
vn -0.2628903687 -0.9635559916 0.04948290437
v 0.01248371508 0.01302959211 0.0441041179
vn 0.9896584749 0.06278882176 -0.128971681
v 0.01177176647 -0.002880640794 0.01089240238
vn 0.797647655 0.5521635413 0.2426389307
v 0.01531687379 -0.02105102688 0.01676801592
vn 0.4472625554 0.2644817233 0.8544036746
v -0.01140161231 -0.002660221886 0.01122923009
vn -0.7901801467 0.5750924945 0.2118581831
v 0.008556823246 0.006874158047 0.02928439714
vn 0.8928293586 0.1352103502 -0.4296206534
v -0.01455557905 -0.03009218536 0.009490646422
vn 0.01484056376 -0.5595811605 -0.8286426663
v -0.008638171479 -0.003526326502 0.01896372065
vn -0.8978195786 0.04928961396 0.4375962615
v 0.007081785705 -0.01123023406 0.02027077787
vn 0.3911288083 -0.05613876507 0.9186221957
v -0.01405156683 -0.007976986468 0.001202733256
vn -0.6243113279 0.4201973975 -0.6585358381
v -0.0001587863517 0.003562772414 0.07377474755
vn -0.04511347041 -0.9976095557 0.05234482512
v 0.003392822342 0.01440225262 0.0297462903
vn 0.2542266846 0.6126687527 -0.7483353615
v 0.007020663004 -0.02141849883 0.001411376055
vn -0.1249433979 -0.5402684212 -0.8321653605
v -0.007079149131 -0.003350187326 -0.000164630459
vn -0.2806333899 0.496037513 -0.8217004538
v -0.01490801666 -0.03540441394 0.02034180053
vn -0.1468057036 0.3760560155 0.9148933887
v 0.02447573282 -0.02266638912 0.008351061493
vn 0.9627662301 0.2416912317 -0.1211056635
v -0.01209817268 0.00798857864 0.08393523097
vn -0.6438106298 -0.7651284337 0.009292417206
v 0.006599136628 0.0275819134 0.0659134686
vn 0.2733357549 0.844034493 -0.4614037275
v -0.006507517304 8.046619041e-05 0.0364128612
vn -0.581312418 -0.7870591283 0.2064310461
v 0.008697545156 -0.05201368779 0.0244169347
vn -0.03728565201 -0.9005726576 0.433103472
v -0.01318939216 0.02763173729 0.07669597864
vn -0.7339165807 0.6262026429 -0.2631287575
v -0.009279094636 0.004372707102 0.04856954515
vn -0.6456837058 -0.7625694275 0.03975432739
v -0.002396367956 0.002145407023 0.05449268594
vn -0.110720709 -0.9893048406 0.0949568972
v -0.001095853047 0.02305239066 0.04893727973
vn -0.05675556511 0.993421793 -0.09945800155
v -0.01169479918 -0.03902471811 0.01551667694
vn 0.01423831377 -0.5530366302 -0.8330352902
v 0.007566091139 0.002612110693 0.05083582923
vn 0.4930030406 -0.8679205179 0.06051390246
# mm_gid 0
g mmGroup0
f 70//70 512//512 82//82 
f 323//323 266//266 449//449 
f 432//432 104//104 348//348 
f 167//167 135//135 298//298 
f 355//355 419//419 65//65 
f 459//459 37//37 106//106 
f 540//540 46//46 206//206 
f 472//472 147//147 111//111 
f 421//421 224//224 238//238 
f 402//402 46//46 540//540 
f 213//213 421//421 238//238 
f 180//180 45//45 153//153 
f 326//326 163//163 150//150 
f 86//86 178//178 96//96 
f 457//457 321//321 564//564 
f 477//477 195//195 215//215 
f 482//482 74//74 58//58 
f 540//540 206//206 116//116 
f 558//558 522//522 362//362 
f 488//488 515//515 140//140 
f 117//117 551//551 118//118 
f 229//229 104//104 193//193 
f 106//106 535//535 22//22 
f 475//475 413//413 226//226 
f 182//182 183//183 503//503 
f 278//278 176//176 409//409 
f 107//107 163//163 511//511 
f 51//51 547//547 436//436 
f 425//425 152//152 8//8 
f 564//564 236//236 479//479 
f 337//337 18//18 252//252 
f 137//137 507//507 388//388 
f 46//46 99//99 457//457 
f 413//413 64//64 226//226 
f 251//251 52//52 94//94 
f 510//510 99//99 337//337 
f 544//544 388//388 507//507 
f 413//413 342//342 515//515 
f 540//540 90//90 135//135 
f 158//158 427//427 161//161 
f 319//319 152//152 425//425 
f 99//99 46//46 402//402 
f 321//321 476//476 382//382 
f 46//46 457//457 479//479 
f 373//373 406//406 187//187 
f 534//534 139//139 265//265 
f 41//41 209//209 558//558 
f 56//56 480//480 225//225 
f 479//479 457//457 564//564 
f 23//23 77//77 27//27 
f 65//65 78//78 501//501 
f 1//1 523//523 156//156 
f 480//480 398//398 417//417 
f 432//432 403//403 193//193 
f 150//150 393//393 541//541 
f 327//327 243//243 498//498 
f 229//229 215//215 378//378 
f 425//425 8//8 371//371 
f 509//509 552//552 444//444 
f 374//374 127//127 525//525 
f 352//352 153//153 224//224 
f 34//34 110//110 117//117 
f 150//150 163//163 107//107 
f 318//318 135//135 90//90 
f 39//39 35//35 227//227 
f 18//18 174//174 256//256 
f 337//337 280//280 510//510 
f 175//175 36//36 345//345 
f 454//454 388//388 544//544 
f 35//35 535//535 227//227 
f 131//131 345//345 36//36 
f 386//386 271//271 187//187 
f 283//283 483//483 262//262 
f 336//336 173//173 379//379 
f 373//373 187//187 271//271 
f 521//521 175//175 166//166 
f 368//368 262//262 508//508 
f 11//11 225//225 339//339 
f 420//420 361//361 107//107 
f 247//247 291//291 357//357 
f 76//76 77//77 547//547 
f 230//230 348//348 104//104 
f 5//5 544//544 85//85 
f 462//462 466//466 494//494 
f 120//120 503//503 183//183 
f 108//108 385//385 198//198 
f 234//234 165//165 210//210 
f 255//255 530//530 456//456 
f 399//399 328//328 409//409 
f 538//538 491//491 463//463 
f 255//255 456//456 17//17 
f 173//173 534//534 269//269 
f 321//321 457//457 510//510 
f 454//454 544//544 274//274 
f 258//258 334//334 541//541 
f 152//152 319//319 379//379 
f 336//336 18//18 256//256 
f 68//68 368//368 175//175 
f 335//335 404//404 543//543 
f 419//419 147//147 472//472 
f 292//292 524//524 403//403 
f 45//45 327//327 438//438 
f 218//218 129//129 51//51 
f 374//374 23//23 27//27 
f 265//265 340//340 269//269 
f 224//224 45//45 238//238 
f 429//429 529//529 215//215 
f 321//321 16//16 476//476 
f 235//235 36//36 508//508 
f 521//521 387//387 371//371 
f 386//386 352//352 460//460 
f 422//422 488//488 54//54 
f 68//68 521//521 371//371 
f 439//439 60//60 481//481 
f 38//38 245//245 443//443 
f 153//153 187//187 406//406 
f 275//275 172//172 221//221 
f 117//117 103//103 251//251 
f 395//395 561//561 476//476 
f 113//113 512//512 134//134 
f 476//476 561//561 273//273 
f 326//326 150//150 541//541 
f 358//358 315//315 411//411 
f 515//515 342//342 161//161 
f 466//466 35//35 494//494 
f 386//386 187//187 352//352 
f 154//154 112//112 24//24 
f 332//332 545//545 58//58 
f 333//333 508//508 262//262 
f 287//287 218//218 259//259 
f 321//321 434//434 16//16 
f 399//399 409//409 176//176 
f 548//548 79//79 212//212 
f 165//165 253//253 473//473 
f 131//131 70//70 345//345 
f 383//383 233//233 335//335 
f 103//103 117//117 118//118 
f 256//256 174//174 391//391 
f 289//289 542//542 33//33 
f 539//539 471//471 12//12 
f 278//278 47//47 485//485 
f 23//23 158//158 264//264 
f 35//35 373//373 136//136 
f 479//479 206//206 46//46 
f 295//295 234//234 62//62 
f 477//477 172//172 195//195 
f 33//33 542//542 23//23 
f 5//5 223//223 145//145 
f 92//92 97//97 460//460 
f 371//371 387//387 172//172 
f 176//176 278//278 418//418 
f 510//510 280//280 434//434 
f 134//134 124//124 113//113 
f 380//380 259//259 218//218 
f 106//106 37//37 10//10 
f 327//327 354//354 438//438 
f 235//235 131//131 36//36 
f 100//100 32//32 42//42 
f 370//370 441//441 149//149 
f 529//529 124//124 230//230 
f 429//429 82//82 113//113 
f 45//45 180//180 327//327 
f 174//174 337//337 99//99 
f 354//354 554//554 140//140 
f 80//80 388//388 359//359 
f 379//379 173//173 152//152 
f 64//64 422//422 54//54 
f 551//551 117//117 110//110 
f 118//118 551//551 346//346 
f 281//281 450//450 1//1 
f 279//279 43//43 222//222 
f 388//388 454//454 359//359 
f 521//521 68//68 175//175 
f 285//285 111//111 437//437 
f 318//318 294//294 324//324 
f 231//231 21//21 341//341 
f 112//112 54//54 488//488 
f 25//25 257//257 423//423 
f 340//340 556//556 269//269 
f 141//141 50//50 177//177 
f 439//439 103//103 118//118 
f 180//180 153//153 406//406 
f 324//324 294//294 274//274 
f 189//189 350//350 349//349 
f 208//208 209//209 197//197 
f 319//319 249//249 437//437 
f 97//97 197//197 41//41 
f 352//352 224//224 460//460 
f 252//252 490//490 337//337 
f 362//362 41//41 558//558 
f 213//213 455//455 232//232 
f 208//208 197//197 92//92 
f 76//76 547//547 51//51 
f 229//229 378//378 104//104 
f 495//495 405//405 532//532 
f 525//525 370//370 232//232 
f 268//268 417//417 398//398 
f 190//190 28//28 417//417 
f 40//40 59//59 484//484 
f 294//294 454//454 274//274 
f 9//9 204//204 389//389 
f 41//41 84//84 97//97 
f 398//398 480//480 146//146 
f 457//457 99//99 510//510 
f 187//187 153//153 352//352 
f 265//265 139//139 114//114 
f 95//95 487//487 362//362 
f 193//193 403//403 276//276 
f 95//95 362//362 522//522 
f 29//29 348//348 230//230 
f 549//549 307//307 351//351 
f 126//126 135//135 318//318 
f 122//122 493//493 537//537 
f 129//129 218//218 287//287 
f 424//424 438//438 354//354 
f 354//354 327//327 498//498 
f 524//524 489//489 88//88 
f 532//532 416//416 452//452 
f 137//137 502//502 526//526 
f 9//9 389//389 49//49 
f 387//387 195//195 172//172 
f 237//237 292//292 72//72 
f 40//40 484//484 49//49 
f 411//411 315//315 433//433 
f 377//377 478//478 311//311 
f 74//74 442//442 198//198 
f 267//267 462//462 356//356 
f 67//67 375//375 236//236 
f 340//340 9//9 338//338 
f 263//263 131//131 235//235 
f 73//73 185//185 468//468 
f 550//550 324//324 274//274 
f 347//347 333//333 364//364 
f 257//257 301//301 277//277 
f 286//286 28//28 267//267 
f 503//503 446//446 160//160 
f 348//348 57//57 72//72 
f 349//349 192//192 407//407 
f 341//341 42//42 126//126 
f 469//469 232//232 370//370 
f 119//119 322//322 381//381 
f 279//279 144//144 199//199 
f 346//346 474//474 385//385 
f 142//142 148//148 553//553 
f 367//367 263//263 17//17 
f 102//102 320//320 53//53 
f 40//40 49//49 389//389 
f 57//57 29//29 412//412 
f 459//459 385//385 474//474 
f 330//330 490//490 437//437 
f 538//538 533//533 138//138 
f 333//333 299//299 364//364 
f 420//420 363//363 303//303 
f 466//466 170//170 19//19 
f 355//355 65//65 228//228 
f 278//278 409//409 47//47 
f 184//184 497//497 132//132 
f 163//163 73//73 203//203 
f 89//89 426//426 191//191 
f 449//449 344//344 323//323 
f 519//519 66//66 128//128 
f 279//279 214//214 179//179 
f 198//198 385//385 304//304 
f 451//451 214//214 188//188 
f 267//267 356//356 286//286 
f 102//102 164//164 63//63 
f 346//346 331//331 118//118 
f 354//354 498//498 554//554 
f 532//532 435//435 495//495 
f 416//416 13//13 452//452 
f 340//340 265//265 87//87 
f 145//145 550//550 5//5 
f 101//101 418//418 485//485 
f 38//38 443//443 527//527 
f 415//415 458//458 410//410 
f 339//339 225//225 480//480 
f 537//537 493//493 504//504 
f 67//67 273//273 1//1 
f 439//439 118//118 331//331 
f 186//186 313//313 562//562 
f 312//312 359//359 206//206 
f 236//236 375//375 312//312 
f 37//37 474//474 551//551 
f 121//121 314//314 32//32 
f 263//263 235//235 430//430 
f 364//364 338//338 49//49 
f 522//522 11//11 286//286 
f 27//27 392//392 467//467 
f 335//335 464//464 383//383 
f 114//114 121//121 499//499 
f 470//470 301//301 25//25 
f 182//182 160//160 205//205 
f 216//216 15//15 291//291 
f 29//29 57//57 348//348 
f 151//151 181//181 350//350 
f 70//70 131//131 296//296 
f 79//79 464//464 396//396 
f 407//407 377//377 311//311 
f 288//288 557//557 281//281 
f 304//304 385//385 93//93 
f 408//408 530//530 255//255 
f 442//442 74//74 357//357 
f 527//527 185//185 38//38 
f 524//524 88//88 276//276 
f 114//114 139//139 3//3 
f 419//419 355//355 55//55 
f 554//554 24//24 112//112 
f 441//441 127//127 201//201 
f 89//89 561//561 395//395 
f 237//237 524//524 292//292 
f 105//105 493//493 122//122 
f 106//106 10//10 141//141 
f 336//336 534//534 173//173 
f 441//441 322//322 119//119 
f 508//508 333//333 397//397 
f 163//163 203//203 511//511 
f 192//192 194//194 407//407 
f 329//329 440//440 26//26 
f 400//400 192//192 528//528 
f 76//76 51//51 98//98 
f 186//186 248//248 533//533 
f 109//109 190//190 250//250 
f 261//261 282//282 465//465 
f 185//185 73//73 86//86 
f 321//321 382//382 564//564 
f 25//25 98//98 129//129 
f 562//562 100//100 186//186 
f 341//341 126//126 14//14 
f 170//170 462//462 323//323 
f 489//489 524//524 237//237 
f 143//143 465//465 282//282 
f 231//231 324//324 550//550 
f 85//85 317//317 5//5 
f 69//69 513//513 301//301 
f 295//295 62//62 142//142 
f 467//467 127//127 374//374 
f 464//464 543//543 396//396 
f 514//514 407//407 311//311 
f 483//483 556//556 299//299 
f 301//301 440//440 277//277 
f 154//154 24//24 50//50 
f 134//134 115//115 124//124 
f 528//528 531//531 293//293 
f 265//265 269//269 534//534 
f 173//173 269//269 290//290 
f 463//463 310//310 40//40 
f 325//325 75//75 343//343 
f 272//272 128//128 162//162 
f 539//539 537//537 504//504 
f 424//424 542//542 289//289 
f 199//199 2//2 102//102 
f 193//193 276//276 228//228 
f 20//20 281//281 557//557 
f 435//435 560//560 191//191 
f 342//342 475//475 258//258 
f 81//81 384//384 428//428 
f 489//489 418//418 390//390 
f 258//258 244//244 342//342 
f 31//31 497//497 26//26 
f 221//221 260//260 518//518 
f 338//338 299//299 556//556 
f 29//29 124//124 115//115 
f 519//519 239//239 559//559 
f 166//166 70//70 82//82 
f 5//5 550//550 274//274 
f 413//413 475//475 342//342 
f 548//548 291//291 478//478 
f 137//137 506//506 287//287 
f 83//83 335//335 233//233 
f 484//484 59//59 254//254 
f 527//527 468//468 185//185 
f 17//17 263//263 430//430 
f 119//119 149//149 441//441 
f 309//309 360//360 240//240 
f 454//454 116//116 359//359 
f 549//549 351//351 147//147 
f 564//564 382//382 236//236 
f 272//272 162//162 453//453 
f 451//451 188//188 12//12 
f 385//385 459//459 93//93 
f 190//190 267//267 28//28 
f 382//382 273//273 67//67 
f 113//113 529//529 429//429 
f 423//423 257//257 546//546 
f 204//204 87//87 499//499 
f 305//305 39//39 177//177 
f 149//149 469//469 370//370 
f 553//553 295//295 142//142 
f 498//498 50//50 24//24 
f 18//18 379//379 252//252 
f 354//354 140//140 424//424 
f 514//514 247//247 482//482 
f 143//143 563//563 465//465 
f 528//528 302//302 531//531 
f 58//58 74//74 332//332 
f 519//519 516//516 239//239 
f 500//500 492//492 491//491 
f 11//11 339//339 28//28 
f 234//234 414//414 62//62 
f 514//514 311//311 247//247 
f 89//89 191//191 523//523 
f 102//102 2//2 164//164 
f 137//137 80//80 502//502 
f 380//380 150//150 361//361 
f 74//74 198//198 332//332 
f 412//412 115//115 81//81 
f 303//303 4//4 223//223 
f 281//281 1//1 156//156 
f 308//308 71//71 363//363 
f 169//169 290//290 483//483 
f 549//549 147//147 505//505 
f 72//72 292//292 432//432 
f 360//360 309//309 270//270 
f 348//348 72//72 432//432 
f 115//115 134//134 297//297 
f 539//539 12//12 123//123 
f 284//284 509//509 60//60 
f 71//71 543//543 458//458 
f 455//455 369//369 289//289 
f 314//314 298//298 126//126 
f 297//297 207//207 394//394 
f 177//177 243//243 305//305 
f 215//215 195//195 429//429 
f 452//452 435//435 532//532 
f 363//363 511//511 308//308 
f 19//19 22//22 535//535 
f 366//366 155//155 133//133 
f 351//351 111//111 147//147 
f 122//122 537//537 44//44 
f 101//101 366//366 555//555 
f 508//508 397//397 235//235 
f 88//88 390//390 372//372 
f 366//366 101//101 485//485 
f 462//462 494//494 356//356 
f 303//303 223//223 420//420 
f 400//400 414//414 210//210 
f 14//14 126//126 318//318 
f 56//56 209//209 208//208 
f 516//516 456//456 239//239 
f 241//241 331//331 108//108 
f 378//378 215//215 529//529 
f 123//123 44//44 537//537 
f 505//505 419//419 55//55 
f 301//301 513//513 440//440 
f 261//261 545//545 282//282 
f 402//402 174//174 99//99 
f 211//211 372//372 390//390 
f 217//217 495//495 435//435 
f 503//503 21//21 517//517 
f 555//555 179//179 214//214 
f 483//483 299//299 262//262 
f 329//329 277//277 440//440 
f 400//400 194//194 192//192 
f 383//383 464//464 478//478 
f 87//87 265//265 114//114 
f 87//87 114//114 499//499 
f 209//209 225//225 558//558 
f 295//295 219//219 125//125 
f 357//357 482//482 247//247 
f 270//270 398//398 381//381 
f 461//461 446//446 517//517 
f 318//318 90//90 294//294 
f 6//6 293//293 531//531 
f 290//290 169//169 173//173 
f 414//414 528//528 293//293 
f 285//285 472//472 111//111 
f 310//310 463//463 159//159 
f 69//69 20//20 557//557 
f 227//227 141//141 177//177 
f 491//491 159//159 463//463 
f 160//160 416//416 205//205 
f 144//144 222//222 66//66 
f 525//525 127//127 370//370 
f 178//178 475//475 226//226 
f 199//199 188//188 214//214 
f 420//420 317//317 361//361 
f 349//349 407//407 514//514 
f 284//284 212//212 509//509 
f 552//552 509//509 212//212 
f 155//155 485//485 47//47 
f 519//519 272//272 516//516 
f 296//296 134//134 512//512 
f 231//231 30//30 21//21 
f 343//343 553//553 148//148 
f 500//500 491//491 138//138 
f 357//357 74//74 482//482 
f 121//121 3//3 314//314 
f 86//86 73//73 326//326 
f 155//155 242//242 200//200 
f 471//471 549//549 505//505 
f 492//492 63//63 159//159 
f 26//26 440//440 513//513 
f 101//101 390//390 418//418 
f 39//39 227//227 177//177 
f 83//83 404//404 335//335 
f 296//296 297//297 134//134 
f 465//465 75//75 325//325 
f 266//266 250//250 563//563 
f 109//109 250//250 266//266 
f 358//358 91//91 473//473 
f 304//304 48//48 332//332 
f 259//259 507//507 287//287 
f 446//446 132//132 130//130 
f 196//196 136//136 95//95 
f 106//106 227//227 535//535 
f 121//121 32//32 562//562 
f 553//553 7//7 295//295 
f 522//522 286//286 196//196 
f 499//499 121//121 562//562 
f 188//188 199//199 53//53 
f 373//373 39//39 406//406 
f 430//430 397//397 347//347 
f 151//151 545//545 261//261 
f 75//75 240//240 343//343 
f 377//377 407//407 194//194 
f 341//341 21//21 120//120 
f 8//8 283//283 68//68 
f 527//527 481//481 444//444 
f 180//180 305//305 243//243 
f 281//281 20//20 450//450 
f 310//310 164//164 59//59 
f 150//150 380//380 393//393 
f 486//486 61//61 246//246 
f 146//146 171//171 149//149 
f 341//341 14//14 231//231 
f 412//412 29//29 115//115 
f 333//333 262//262 299//299 
f 468//468 61//61 203//203 
f 302//302 528//528 192//192 
f 462//462 170//170 466//466 
f 394//394 431//431 384//384 
f 404//404 83//83 401//401 
f 217//217 426//426 445//445 
f 346//346 385//385 108//108 
f 196//196 95//95 522//522 
f 355//355 276//276 88//88 
f 82//82 365//365 166//166 
f 366//366 485//485 155//155 
f 220//220 207//207 367//367 
f 270//270 381//381 7//7 
f 183//183 100//100 120//120 
f 137//137 526//526 506//506 
f 63//63 157//157 445//445 
f 166//166 345//345 70//70 
f 138//138 533//533 405//405 
f 79//79 548//548 464//464 
f 169//169 152//152 173//173 
f 183//183 248//248 186//186 
f 338//338 556//556 340//340 
f 421//421 460//460 224//224 
f 39//39 305//305 406//406 
f 291//291 15//15 357//357 
f 4//4 448//448 223//223 
f 491//491 492//492 159//159 
f 278//278 485//485 418//418 
f 89//89 395//395 122//122 
f 390//390 88//88 489//489 
f 540//540 135//135 167//167 
f 243//243 327//327 180//180 
f 386//386 460//460 97//97 
f 520//520 128//128 43//43 
f 540//540 116//116 90//90 
f 55//55 372//372 447//447 
f 360//360 7//7 553//553 
f 431//431 200//200 242//242 
f 555//555 214//214 451//451 
f 281//281 156//156 288//288 
f 31//31 288//288 13//13 
f 306//306 229//229 193//193 
f 484//484 559//559 530//530 
f 468//468 203//203 73//73 
f 291//291 247//247 311//311 
f 293//293 142//142 62//62 
f 520//520 162//162 128//128 
f 77//77 76//76 433//433 
f 27//27 433//433 392//392 
f 199//199 214//214 279//279 
f 168//168 415//415 410//410 
f 144//144 66//66 254//254 
f 366//366 179//179 555//555 
f 387//387 365//365 195//195 
f 325//325 353//353 261//261 
f 295//295 7//7 219//219 
f 307//307 105//105 496//496 
f 495//495 500//500 405//405 
f 545//545 48//48 282//282 
f 464//464 335//335 543//543 
f 369//369 438//438 289//289 
f 393//393 436//436 244//244 
f 515//515 488//488 422//422 
f 401//401 83//83 91//91 
f 145//145 461//461 30//30 
f 130//130 416//416 160//160 
f 431//431 242//242 384//384 
f 164//164 310//310 159//159 
f 449//449 266//266 143//143 
f 71//71 486//486 396//396 
f 256//256 139//139 534//534 
f 190//190 417//417 268//268 
f 44//44 445//445 426//426 
f 536//536 401//401 358//358 
f 314//314 3//3 298//298 
f 31//31 13//13 497//497 
f 378//378 230//230 104//104 
f 404//404 401//401 423//423 
f 155//155 200//200 133//133 
f 353//353 181//181 261//261 
f 199//199 144//144 2//2 
f 19//19 93//93 22//22 
f 156//156 452//452 288//288 
f 122//122 395//395 105//105 
f 4//4 303//303 168//168 
f 453//453 394//394 207//207 
f 11//11 28//28 286//286 
f 435//435 191//191 217//217 
f 102//102 53//53 199//199 
f 537//537 539//539 123//123 
f 6//6 531//531 181//181 
f 169//169 483//483 283//283 
f 184//184 4//4 329//329 
f 396//396 543//543 71//71 
f 160//160 446//446 130//130 
f 502//502 80//80 375//375 
f 347//347 397//397 333//333 
f 30//30 550//550 145//145 
f 449//449 143//143 48//48 
f 123//123 53//53 44//44 
f 263//263 367//367 296//296 
f 423//423 536//536 25//25 
f 124//124 529//529 113//113 
f 58//58 545//545 151//151 
f 189//189 58//58 151//151 
f 399//399 428//428 328//328 
f 256//256 534//534 336//336 
f 510//510 434//434 321//321 
f 284//284 60//60 241//241 
f 413//413 422//422 64//64 
f 13//13 416//416 130//130 
f 482//482 58//58 189//189 
f 288//288 31//31 557//557 
f 474//474 346//346 551//551 
f 366//366 133//133 179//179 
f 415//415 363//363 71//71 
f 477//477 260//260 221//221 
f 150//150 107//107 361//361 
f 524//524 276//276 403//403 
f 408//408 347//347 364//364 
f 314//314 42//42 32//32 
f 148//148 142//142 6//6 
f 56//56 171//171 146//146 
f 11//11 558//558 225//225 
f 468//468 527//527 444//444 
f 553//553 343//343 360//360 
f 444//444 552//552 246//246 
f 517//517 30//30 461//461 
f 503//503 120//120 21//21 
f 408//408 49//49 484//484 
f 414//414 293//293 62//62 
f 50//50 498//498 243//243 
f 420//420 511//511 363//363 
f 439//439 443//443 103//103 
f 307//307 504//504 493//493 
f 70//70 296//296 512//512 
f 523//523 191//191 560//560 
f 539//539 504//504 549//549 
f 372//372 55//55 355//355 
f 264//264 547//547 77//77 
f 79//79 486//486 552//552 
f 320//320 44//44 53//53 
f 399//399 176//176 237//237 
f 550//550 30//30 231//231 
f 122//122 44//44 426//426 
f 402//402 391//391 174//174 
f 85//85 259//259 317//317 
f 79//79 396//396 486//486 
f 496//496 434//434 280//280 
f 72//72 57//57 399//399 
f 490//490 252//252 437//437 
f 290//290 556//556 483//483 
f 210//210 376//376 400//400 
f 26//26 184//184 329//329 
f 176//176 418//418 489//489 
f 481//481 527//527 443//443 
f 29//29 230//230 124//124 
f 4//4 168//168 329//329 
f 500//500 138//138 405//405 
f 486//486 71//71 61//61 
f 250//250 240//240 563//563 
f 228//228 306//306 193//193 
f 43//43 279//279 179//179 
f 71//71 308//308 61//61 
f 528//528 414//414 400//400 
f 300//300 421//421 213//213 
f 100//100 42//42 120//120 
f 323//323 462//462 109//109 
f 453//453 207//207 220//220 
f 264//264 436//436 547//547 
f 439//439 481//481 443//443 
f 430//430 255//255 17//17 
f 397//397 430//430 235//235 
f 89//89 523//523 561//561 
f 211//211 316//316 447//447 
f 66//66 222//222 128//128 
f 494//494 196//196 356//356 
f 188//188 53//53 123//123 
f 328//328 242//242 47//47 
f 248//248 205//205 405//405 
f 496//496 16//16 434//434 
f 374//374 525//525 33//33 
f 240//240 360//360 343//343 
f 360//360 270//270 7//7 
f 241//241 442//442 15//15 
f 220//220 367//367 17//17 
f 239//239 530//530 559//559 
f 431//431 453//453 162//162 
f 121//121 114//114 3//3 
f 458//458 546//546 410//410 
f 188//188 123//123 12//12 
f 455//455 33//33 525//525 
f 257//257 277//277 410//410 
f 125//125 219//219 322//322 
f 129//129 287//287 506//506 
f 381//381 398//398 146//146 
f 291//291 548//548 216//216 
f 471//471 539//539 549//549 
f 2//2 254//254 59//59 
f 217//217 191//191 426//426 
f 25//25 536//536 98//98 
f 145//145 448//448 461//461 
f 5//5 317//317 223//223 
f 100//100 183//183 186//186 
f 412//412 81//81 428//428 
f 389//389 538//538 463//463 
f 316//316 451//451 12//12 
f 472//472 65//65 419//419 
f 347//347 408//408 255//255 
f 159//159 63//63 164//164 
f 277//277 329//329 168//168 
f 473//473 315//315 358//358 
f 91//91 83//83 376//376 
f 184//184 448//448 4//4 
f 182//182 205//205 248//248 
f 216//216 284//284 15//15 
f 291//291 311//311 478//478 
f 9//9 340//340 87//87 
f 376//376 210//210 91//91 
f 56//56 146//146 480//480 
f 20//20 502//502 450//450 
f 392//392 315//315 253//253 
f 523//523 560//560 156//156 
f 471//471 505//505 447//447 
f 452//452 560//560 435//435 
f 470//470 69//69 301//301 
f 25//25 301//301 257//257 
f 14//14 318//318 324//324 
f 441//441 370//370 127//127 
f 448//448 184//184 132//132 
f 473//473 253//253 315//315 
f 431//431 162//162 200//200 
f 8//8 68//68 371//371 
f 26//26 497//497 184//184 
f 170//170 323//323 344//344 
f 2//2 144//144 254//254 
f 423//423 401//401 536//536 
f 236//236 382//382 67//67 
f 509//509 481//481 60//60 
f 506//506 526//526 470//470 
f 175//175 345//345 166//166 
f 131//131 263//263 296//296 
f 6//6 181//181 353//353 
f 314//314 126//126 42//42 
f 51//51 129//129 98//98 
f 467//467 374//374 27//27 
f 122//122 426//426 89//89 
f 331//331 60//60 439//439 
f 532//532 405//405 205//205 
f 302//302 192//192 349//349 
f 143//143 282//282 48//48 
f 456//456 220//220 17//17 
f 69//69 557//557 513//513 
f 254//254 559//559 484//484 
f 141//141 154//154 50//50 
f 419//419 505//505 147//147 
f 219//219 381//381 322//322 
f 140//140 554//554 488//488 
f 404//404 423//423 546//546 
f 536//536 358//358 411//411 
f 502//502 20//20 526//526 
f 189//189 514//514 482//482 
f 71//71 458//458 415//415 
f 264//264 244//244 436//436 
f 548//548 212//212 216//216 
f 242//242 328//328 384//384 
f 228//228 276//276 355//355 
f 297//297 394//394 81//81 
f 519//519 128//128 272//272 
f 324//324 231//231 14//14 
f 113//113 82//82 512//512 
f 258//258 475//475 334//334 
f 395//395 476//476 16//16 
f 337//337 174//174 18//18 
f 96//96 38//38 185//185 
f 453//453 220//220 272//272 
f 323//323 109//109 266//266 
f 252//252 379//379 319//319 
f 328//328 428//428 384//384 
f 433//433 27//27 77//77 
f 260//260 477//477 306//306 
f 130//130 497//497 13//13 
f 356//356 196//196 286//286 
f 343//343 148//148 325//325 
f 455//455 289//289 33//33 
f 5//5 274//274 544//544 
f 455//455 238//238 369//369 
f 554//554 498//498 24//24 
f 463//463 40//40 389//389 
f 306//306 477//477 229//229 
f 222//222 43//43 128//128 
f 290//290 269//269 556//556 
f 468//468 246//246 61//61 
f 210//210 473//473 91//91 
f 277//277 168//168 410//410 
f 221//221 518//518 275//275 
f 486//486 246//246 552//552 
f 169//169 283//283 8//8 
f 16//16 105//105 395//395 
f 90//90 116//116 294//294 
f 221//221 172//172 477//477 
f 213//213 232//232 469//469 
f 509//509 444//444 481//481 
f 129//129 506//506 470//470 
f 394//394 453//453 431//431 
f 377//377 233//233 383//383 
f 3//3 391//391 167//167 
f 488//488 554//554 112//112 
f 43//43 133//133 520//520 
f 344//344 19//19 170//170 
f 338//338 364//364 299//299 
f 45//45 224//224 153//153 
f 142//142 293//293 6//6 
f 178//178 334//334 475//475 
f 380//380 218//218 436//436 
f 456//456 516//516 220//220 
f 166//166 365//365 521//521 
f 518//518 285//285 249//249 
f 172//172 275//275 371//371 
f 60//60 331//331 241//241 
f 251//251 245//245 52//52 
f 259//259 361//361 317//317 
f 129//129 470//470 25//25 
f 339//339 480//480 417//417 
f 249//249 285//285 437//437 
f 78//78 260//260 501//501 
f 140//140 427//427 424//424 
f 522//522 558//558 11//11 
f 201//201 322//322 441//441 
f 544//544 507//507 85//85 
f 511//511 203//203 308//308 
f 145//145 223//223 448//448 
f 165//165 201//201 253//253 
f 212//212 284//284 216//216 
f 215//215 229//229 477//477 
f 413//413 515//515 422//422 
f 107//107 511//511 420//420 
f 532//532 205//205 416//416 
f 436//436 393//393 380//380 
f 154//154 202//202 112//112 
f 476//476 273//273 382//382 
f 508//508 36//36 368//368 
f 320//320 102//102 63//63 
f 297//297 367//367 207//207 
f 376//376 194//194 400//400 
f 136//136 494//494 35//35 
f 459//459 106//106 22//22 
f 165//165 234//234 125//125 
f 45//45 438//438 369//369 
f 387//387 521//521 365//365 
f 232//232 455//455 525//525 
f 208//208 171//171 56//56 
f 411//411 433//433 76//76 
f 137//137 287//287 507//507 
f 548//548 478//478 464//464 
f 484//484 530//530 408//408 
f 519//519 559//559 66//66 
f 367//367 297//297 296//296 
f 69//69 526//526 20//20 
f 487//487 95//95 136//136 
f 248//248 405//405 533//533 
f 155//155 47//47 242//242 
f 307//307 493//493 105//105 
f 182//182 248//248 183//183 
f 312//312 479//479 236//236 
f 424//424 289//289 438//438 
f 97//97 92//92 197//197 
f 177//177 50//50 243//243 
f 357//357 15//15 442//442 
f 168//168 303//303 415//415 
f 271//271 487//487 373//373 
f 334//334 178//178 86//86 
f 529//529 230//230 378//378 
f 158//158 23//23 542//542 
f 161//161 140//140 515//515 
f 151//151 261//261 181//181 
f 520//520 133//133 200//200 
f 326//326 73//73 163//163 
f 346//346 108//108 331//331 
f 381//381 146//146 119//119 
f 304//304 344//344 449//449 
f 535//535 466//466 19//19 
f 44//44 320//320 445//445 
f 94//94 34//34 251//251 
f 204//204 313//313 538//538 
f 468//468 444//444 246//246 
f 41//41 197//197 209//209 
f 491//491 538//538 138//138 
f 381//381 219//219 7//7 
f 245//245 103//103 443//443 
f 549//549 504//504 307//307 
f 302//302 349//349 350//350 
f 196//196 494//494 136//136 
f 198//198 304//304 332//332 
f 514//514 189//189 349//349 
f 259//259 85//85 507//507 
f 158//158 244//244 264//264 
f 33//33 23//23 374//374 
f 233//233 376//376 83//83 
f 254//254 66//66 559//559 
f 43//43 179//179 133//133 
f 535//535 35//35 466//466 
f 212//212 79//79 552//552 
f 496//496 105//105 16//16 
f 69//69 470//470 526//526 
f 92//92 300//300 208//208 
f 190//190 109//109 267//267 
f 496//496 351//351 307//307 
f 86//86 96//96 185//185 
f 350//350 189//189 151//151 
f 369//369 238//238 45//45 
f 300//300 171//171 208//208 
f 310//310 59//59 40//40 
f 258//258 393//393 244//244 
f 501//501 228//228 65//65 
f 167//167 298//298 3//3 
f 54//54 112//112 202//202 
f 303//303 363//363 415//415 
f 496//496 280//280 330//330 
f 2//2 59//59 164//164 
f 226//226 94//94 52//52 
f 351//351 330//330 111//111 
f 542//542 427//427 158//158 
f 12//12 471//471 316//316 
f 26//26 513//513 31//31 
f 141//141 227//227 106//106 
f 141//141 10//10 154//154 
f 76//76 98//98 411//411 
f 267//267 109//109 462//462 
f 502//502 375//375 450//450 
f 22//22 93//93 459//459 
f 283//283 262//262 368//368 
f 500//500 495//495 157//157 
f 10//10 202//202 154//154 
f 228//228 501//501 306//306 
f 31//31 513//513 557//557 
f 541//541 334//334 326//326 
f 330//330 351//351 496//496 
f 452//452 13//13 288//288 
f 167//167 391//391 402//402 
f 330//330 280//280 490//490 
f 63//63 445//445 320//320 
f 399//399 57//57 428//428 
f 458//458 543//543 404//404 
f 149//149 171//171 469//469 
f 330//330 437//437 111//111 
f 304//304 93//93 344//344 
f 430//430 347//347 255//255 
f 563//563 75//75 465//465 
f 257//257 410//410 546//546 
f 523//523 1//1 273//273 
f 317//317 420//420 223//223 
f 37//37 459//459 474//474 
f 461//461 448//448 132//132 
f 152//152 169//169 8//8 
f 241//241 108//108 442//442 
f 94//94 226//226 64//64 
f 55//55 447//447 505//505 
f 149//149 119//119 146//146 
f 285//285 78//78 472//472 
f 160//160 182//182 503//503 
f 19//19 344//344 93//93 
f 94//94 64//64 34//34 
f 9//9 49//49 338//338 
f 503//503 517//517 446//446 
f 92//92 421//421 300//300 
f 312//312 375//375 80//80 
f 319//319 425//425 249//249 
f 9//9 87//87 204//204 
f 181//181 531//531 350//350 
f 68//68 283//283 368//368 
f 213//213 238//238 455//455 
f 402//402 540//540 167//167 
f 86//86 326//326 334//334 
f 206//206 479//479 312//312 
f 132//132 446//446 461//461 
f 492//492 500//500 157//157 
f 523//523 273//273 561//561 
f 454//454 294//294 116//116 
f 355//355 88//88 372//372 
f 424//424 427//427 542//542 
f 429//429 365//365 82//82 
f 156//156 560//560 452//452 
f 425//425 371//371 275//275 
f 325//325 148//148 353//353 
f 237//237 72//72 399//399 
f 63//63 492//492 157//157 
f 391//391 139//139 256//256 
f 429//429 195//195 365//365 
f 538//538 389//389 204//204 
f 23//23 264//264 77//77 
f 394//394 384//384 81//81 
f 432//432 292//292 403//403 
f 251//251 103//103 245//245 
f 250//250 309//309 240//240 
f 302//302 350//350 531//531 
f 171//171 300//300 469//469 
f 117//117 251//251 34//34 
f 270//270 268//268 398//398 
f 391//391 3//3 139//139 
f 467//467 201//201 127//127 
f 54//54 34//34 64//64 
f 54//54 202//202 34//34 
f 393//393 258//258 541//541 
f 210//210 414//414 234//234 
f 206//206 359//359 116//116 
f 266//266 563//563 143//143 
f 162//162 520//520 200//200 
f 186//186 533//533 313//313 
f 442//442 108//108 198//198 
f 471//471 447//447 316//316 
f 467//467 392//392 253//253 
f 193//193 104//104 432//432 
f 275//275 249//249 425//425 
f 377//377 383//383 478//478 
f 489//489 237//237 176//176 
f 280//280 337//337 490//490 
f 75//75 563//563 240//240 
f 211//211 555//555 316//316 
f 92//92 460//460 421//421 
f 211//211 447//447 372//372 
f 376//376 233//233 194//194 
f 517//517 21//21 30//30 
f 56//56 225//225 209//209 
f 325//325 261//261 465//465 
f 239//239 456//456 530//530 
f 253//253 201//201 467//467 
f 392//392 433//433 315//315 
f 368//368 36//36 175//175 
f 406//406 305//305 180//180 
f 313//313 533//533 538//538 
f 516//516 272//272 220//220 
f 217//217 157//157 495//495 
f 51//51 436//436 218//218 
f 312//312 80//80 359//359 
f 41//41 362//362 84//84 
f 562//562 32//32 100//100 
f 445//445 157//157 217//217 
f 35//35 39//39 373//373 
f 332//332 48//48 545//545 
f 275//275 518//518 249//249 
f 361//361 259//259 380//380 
f 18//18 336//336 379//379 
f 135//135 126//126 298//298 
f 37//37 110//110 10//10 
f 497//497 130//130 132//132 
f 203//203 61//61 308//308 
f 6//6 353//353 148//148 
f 241//241 15//15 284//284 
f 213//213 469//469 300//300 
f 252//252 319//319 437//437 
f 245//245 38//38 96//96 
f 67//67 1//1 450//450 
f 322//322 201//201 125//125 
f 211//211 101//101 555//555 
f 404//404 546//546 458//458 
f 451//451 316//316 555//555 
f 271//271 84//84 487//487 
f 375//375 67//67 450//450 
f 551//551 110//110 37//37 
f 202//202 110//110 34//34 
f 408//408 364//364 49//49 
f 250//250 190//190 309//309 
f 304//304 449//449 48//48 
f 211//211 390//390 101//101 
f 328//328 47//47 409//409 
f 270//270 309//309 268//268 
f 222//222 144//144 279//279 
f 518//518 78//78 285//285 
f 140//140 161//161 427//427 
f 178//178 52//52 96//96 
f 536//536 411//411 98//98 
f 165//165 125//125 201//201 
f 412//412 428//428 57//57 
f 341//341 120//120 42//42 
f 245//245 96//96 52//52 
f 295//295 125//125 234//234 
f 136//136 373//373 487//487 
f 306//306 501//501 260//260 
f 362//362 487//487 84//84 
f 472//472 78//78 65//65 
f 202//202 10//10 110//110 
f 28//28 339//339 417//417 
f 78//78 518//518 260//260 
f 190//190 268//268 309//309 
f 473//473 210//210 165//165 
f 81//81 115//115 297//297 
f 204//204 499//499 313//313 
f 226//226 52//52 178//178 
f 161//161 342//342 244//244 
f 233//233 377//377 194//194 
f 401//401 91//91 358//358 
f 386//386 84//84 271//271 
f 137//137 388//388 80//80 
f 158//158 161//161 244//244 
f 562//562 313//313 499//499 
f 97//97 84//84 386//386 
